STARTFONT 2.3
FONT -FontForge-Monoton-Book-R-Normal--12-120-72-72-P-80-ISO10646-1
SIZE 12 72 72  4
FONTBOUNDINGBOX 23 19 -2 -5
COMMENT "Generated by fontforge, http://fontforge.sourceforge.net"
COMMENT "Copyright (c) 2011 by vernon adams. All rights reserved."
STARTPROPERTIES 41
FOUNDRY "FontForge"
FAMILY_NAME "Monoton"
WEIGHT_NAME "Book"
SLANT "R"
SETWIDTH_NAME "Normal"
ADD_STYLE_NAME ""
PIXEL_SIZE 12
POINT_SIZE 120
RESOLUTION_X 72
RESOLUTION_Y 72
SPACING "P"
AVERAGE_WIDTH 80
CHARSET_REGISTRY "ISO10646"
CHARSET_ENCODING "1"
FONTNAME_REGISTRY ""
CHARSET_COLLECTIONS "ISO8859-2 ISO8859-9 ISO8859-4 ISO10646-1"
BITS_PER_PIXEL 4
FONT_NAME "Monoton-Regular"
FACE_NAME "Monoton"
COPYRIGHT "Copyright (c) 2011 by vernon adams. All rights reserved."
FONT_VERSION "1.000"
FONT_ASCENT 10
FONT_DESCENT 2
UNDERLINE_POSITION -1
UNDERLINE_THICKNESS 1
X_HEIGHT 8
CAP_HEIGHT 9
DEFAULT_CHAR 1
RAW_ASCENT 799
RAW_DESCENT 200
NORM_SPACE 1
RELATIVE_WEIGHT 40
RELATIVE_SETWIDTH 50
SUPERSCRIPT_X 0
SUPERSCRIPT_Y 4
SUPERSCRIPT_SIZE 7
SUBSCRIPT_X 0
SUBSCRIPT_Y 0
SUBSCRIPT_SIZE 7
AVG_LOWERCASE_WIDTH 87
AVG_UPPERCASE_WIDTH 94
ENDPROPERTIES
CHARS 372
STARTCHAR glyph1.dup1
ENCODING 0
SWIDTH 108 0
DWIDTH 1 0
BBX 1 1 0 0
BITMAP
00
ENDCHAR
STARTCHAR uni0002
ENCODING 2
SWIDTH 108 0
DWIDTH 1 0
BBX 1 1 0 0
BITMAP
00
ENDCHAR
STARTCHAR uni0009
ENCODING 9
SWIDTH 108 0
DWIDTH 1 0
BBX 1 1 0 0
BITMAP
00
ENDCHAR
STARTCHAR uni000A
ENCODING 10
SWIDTH 108 0
DWIDTH 1 0
BBX 1 1 0 0
BITMAP
00
ENDCHAR
STARTCHAR uni000D
ENCODING 13
SWIDTH 108 0
DWIDTH 1 0
BBX 1 1 0 0
BITMAP
00
ENDCHAR
STARTCHAR space
ENCODING 32
SWIDTH 108 0
DWIDTH 1 0
BBX 1 1 0 0
BITMAP
00
ENDCHAR
STARTCHAR exclam
ENCODING 33
SWIDTH 336 0
DWIDTH 4 0
BBX 4 11 0 -1
BITMAP
4444
6666
6666
6666
6666
6666
6666
3333
3663
3663
3663
ENDCHAR
STARTCHAR quotedbl
ENCODING 34
SWIDTH 538 0
DWIDTH 6 0
BBX 6 5 0 5
BITMAP
444166
666298
666298
666298
111011
ENDCHAR
STARTCHAR numbersign
ENCODING 35
SWIDTH 1014 0
DWIDTH 12 0
BBX 12 12 0 -1
BITMAP
000011101110
000078407770
004488437863
019977888876
036778687763
000784077700
003881078400
016771388210
398799977850
677888779820
038810784000
045501661000
ENDCHAR
STARTCHAR dollar
ENCODING 36
SWIDTH 686 0
DWIDTH 8 0
BBX 8 14 0 -2
BITMAP
00022000
00043000
03799873
28899984
77776830
66785300
57778870
08766776
00567876
01467877
07766776
47877870
00333300
00055000
ENDCHAR
STARTCHAR percent
ENCODING 37
SWIDTH 1504 0
DWIDTH 18 0
BBX 18 12 0 -1
BITMAP
000110000000000000
037987100563000000
188987701881000000
677777835870000000
678676857670376600
677887837855777780
177987728827888776
027886167739777876
000000076738878877
000000078407876774
000000288102787860
000000566000056200
ENDCHAR
STARTCHAR ampersand
ENCODING 38
SWIDTH 1029 0
DWIDTH 12 0
BBX 12 10 0 0
BITMAP
005666544440
077777566660
577899666660
677844366660
677766696686
4879999A6699
766844487674
777888868775
198999928896
027899912786
ENDCHAR
STARTCHAR quotesingle
ENCODING 39
SWIDTH 257 0
DWIDTH 3 0
BBX 3 5 0 5
BITMAP
4440
6660
6660
6660
1110
ENDCHAR
STARTCHAR parenleft
ENCODING 40
SWIDTH 410 0
DWIDTH 5 0
BBX 5 12 0 -1
BITMAP
000110
027950
088840
577730
676600
667600
667600
667600
676810
487850
078850
006730
ENDCHAR
STARTCHAR parenright
ENCODING 41
SWIDTH 408 0
DWIDTH 5 0
BBX 5 12 0 -1
BITMAP
110000
597100
588800
477850
066760
066660
066660
066660
176760
587830
578700
475000
ENDCHAR
STARTCHAR asterisk
ENCODING 42
SWIDTH 664 0
DWIDTH 8 0
BBX 8 8 0 1
BITMAP
00044000
04299140
17888871
47888874
177A9771
37877873
05499450
00166000
ENDCHAR
STARTCHAR plus
ENCODING 43
SWIDTH 601 0
DWIDTH 7 0
BBX 7 6 0 2
BITMAP
00455100
00689200
47889860
59889A70
23789520
00678200
ENDCHAR
STARTCHAR comma
ENCODING 44
SWIDTH 252 0
DWIDTH 3 0
BBX 3 5 0 -2
BITMAP
1110
6660
4660
3660
3610
ENDCHAR
STARTCHAR hyphen
ENCODING 45
SWIDTH 473 0
DWIDTH 6 0
BBX 6 3 0 3
BITMAP
377771
499991
133330
ENDCHAR
STARTCHAR period
ENCODING 46
SWIDTH 255 0
DWIDTH 3 0
BBX 3 3 0 0
BITMAP
1210
5950
5950
ENDCHAR
STARTCHAR slash
ENCODING 47
SWIDTH 447 0
DWIDTH 5 0
BBX 5 12 0 -2
BITMAP
002660
005870
007770
007850
028810
057700
076700
078500
288100
577000
767000
111000
ENDCHAR
STARTCHAR zero
ENCODING 48
SWIDTH 843 0
DWIDTH 10 0
BBX 10 12 0 -1
BITMAP
0000110000
0057887500
0577887760
1888878882
6777107776
6776004876
6776004976
6777006776
2887777784
0777667770
0078778710
0002553000
ENDCHAR
STARTCHAR one
ENCODING 49
SWIDTH 426 0
DWIDTH 5 0
BBX 5 10 0 0
BITMAP
466640
477740
49AA70
057660
057660
057660
057660
057660
057660
057660
ENDCHAR
STARTCHAR two
ENCODING 50
SWIDTH 583 0
DWIDTH 7 0
BBX 7 11 0 0
BITMAP
00100000
49997400
49998730
28778770
00067760
00288840
00878700
06887100
27765200
59999910
59999910
ENDCHAR
STARTCHAR three
ENCODING 51
SWIDTH 612 0
DWIDTH 7 0
BBX 7 12 0 -1
BITMAP
00110000
48997500
49998740
28778870
01548970
01898960
01678760
01668870
16668870
37667770
58778710
14663000
ENDCHAR
STARTCHAR four
ENCODING 52
SWIDTH 622 0
DWIDTH 7 0
BBX 8 10 0 0
BITMAP
00265520
00777700
01887500
06877000
08777440
68871660
46666661
58888881
35555881
00000660
ENDCHAR
STARTCHAR five
ENCODING 53
SWIDTH 691 0
DWIDTH 8 0
BBX 8 11 0 -1
BITMAP
26666660
27777770
5BA66660
58656400
58667871
58666777
34356888
01466887
07766886
47878870
00465200
ENDCHAR
STARTCHAR six
ENCODING 54
SWIDTH 781 0
DWIDTH 9 0
BBX 9 12 0 -1
BITMAP
0000110000
0168997600
0778998520
5788776000
6778564000
6678679810
6678667770
6778668880
6777668880
1788668870
0378789700
0003652000
ENDCHAR
STARTCHAR seven
ENCODING 55
SWIDTH 631 0
DWIDTH 8 0
BBX 8 10 0 0
BITMAP
46665562
47768881
46678770
00077770
00077840
00188810
00487700
00677700
00778400
00888100
ENDCHAR
STARTCHAR eight
ENCODING 56
SWIDTH 808 0
DWIDTH 10 0
BBX 10 12 0 -1
BITMAP
0001220000
0389998610
2889898870
6777667783
6679557684
5777889881
3876667880
6688666784
7777666784
3787667881
0588668830
0014665100
ENDCHAR
STARTCHAR nine
ENCODING 57
SWIDTH 782 0
DWIDTH 9 0
BBX 9 12 0 -1
BITMAP
0000100000
0279987300
1889997830
6777688870
7777259980
6778968980
0887748980
0056659980
0015678870
0287678750
0688787500
0015651000
ENDCHAR
STARTCHAR colon
ENCODING 58
SWIDTH 262 0
DWIDTH 3 0
BBX 3 7 0 1
BITMAP
1320
4960
4850
0000
3640
4850
2530
ENDCHAR
STARTCHAR semicolon
ENCODING 59
SWIDTH 261 0
DWIDTH 3 0
BBX 3 8 0 0
BITMAP
1320
4960
4850
0000
5550
6660
2760
4730
ENDCHAR
STARTCHAR less
ENCODING 60
SWIDTH 670 0
DWIDTH 8 0
BBX 8 10 0 0
BITMAP
00000001
00001675
00478775
47878785
48878750
48785610
69587784
02778784
00005784
00000024
ENDCHAR
STARTCHAR equal
ENCODING 61
SWIDTH 473 0
DWIDTH 6 0
BBX 6 7 0 1
BITMAP
133330
499991
488881
000000
366661
488881
255551
ENDCHAR
STARTCHAR greater
ENCODING 62
SWIDTH 670 0
DWIDTH 8 0
BBX 8 10 0 0
BITMAP
10000000
47610000
47787400
48787875
05767785
01678785
48878784
48788730
48751000
33000000
ENDCHAR
STARTCHAR question
ENCODING 63
SWIDTH 693 0
DWIDTH 8 0
BBX 8 11 0 0
BITMAP
00010000
27899740
36999884
02777887
01113888
06798887
06798783
06786620
04540000
08960000
08960000
ENDCHAR
STARTCHAR at
ENCODING 64
SWIDTH 1076 0
DWIDTH 13 0
BBX 13 12 0 -1
BITMAP
00003666200000
00378767872000
03888766777200
07872666377700
57728767827840
66767766766660
66676706666660
67748897687660
27875786777740
07777544666500
00877897000000
00047677000000
ENDCHAR
STARTCHAR A
ENCODING 65
SWIDTH 936 0
DWIDTH 11 0
BBX 11 10 0 0
BITMAP
000175640000
000677770000
000778881000
004877776000
007778887000
018882788400
067774877700
077899888810
388866677760
777700058770
ENDCHAR
STARTCHAR B
ENCODING 66
SWIDTH 862 0
DWIDTH 10 0
BBX 10 10 0 0
BITMAP
5666666610
6777777772
6688998777
6668445897
6668667877
6669999877
6667445897
6668888888
6669999884
6669998750
ENDCHAR
STARTCHAR C
ENCODING 67
SWIDTH 852 0
DWIDTH 10 0
BBX 10 12 0 -1
BITMAP
0000010000
0027898730
0378898775
0788878873
5777301620
6676000000
6675000000
6777000400
2888767771
0678767877
0058878860
0000465100
ENDCHAR
STARTCHAR D
ENCODING 68
SWIDTH 886 0
DWIDTH 11 0
BBX 11 10 0 0
BITMAP
566666650000
677777688000
668899777700
666844788800
666600078830
666600078830
666600488810
667888888700
678999888100
789999871000
ENDCHAR
STARTCHAR E
ENCODING 69
SWIDTH 706 0
DWIDTH 8 0
BBX 8 10 0 0
BITMAP
44486666
666A7776
66696666
66660000
666A7600
666B9700
66683200
66672222
666B9999
666B9999
ENDCHAR
STARTCHAR F
ENCODING 70
SWIDTH 683 0
DWIDTH 8 0
BBX 8 10 0 0
BITMAP
44486665
666A7775
66696665
66660000
666A6663
666A6663
666A6663
66660000
66660000
66660000
ENDCHAR
STARTCHAR G
ENCODING 71
SWIDTH 908 0
DWIDTH 11 0
BBX 11 12 0 -1
BITMAP
000001000000
002789873000
037889877500
078887887300
577730162000
667600000000
668500066760
677700066760
2778766A6760
0677767A6760
0067878A6760
000146520000
ENDCHAR
STARTCHAR H
ENCODING 72
SWIDTH 901 0
DWIDTH 11 0
BBX 11 10 0 0
BITMAP
444400045630
666600067940
666600067940
666600067940
666A77787940
666B99997940
666833377940
666600067940
666600067940
666600067940
ENDCHAR
STARTCHAR I
ENCODING 73
SWIDTH 338 0
DWIDTH 4 0
BBX 4 10 0 0
BITMAP
4444
6666
6666
6666
6666
6666
6666
6666
6666
6666
ENDCHAR
STARTCHAR J
ENCODING 74
SWIDTH 434 0
DWIDTH 5 0
BBX 5 11 0 -1
BITMAP
036440
049660
049660
049660
049660
049660
048660
587770
578820
588500
551000
ENDCHAR
STARTCHAR K
ENCODING 75
SWIDTH 815 0
DWIDTH 10 0
BBX 10 10 0 0
BITMAP
4444005554
6666058770
6666077750
6666687700
6667778500
6668888400
6666777700
6666188840
6666067770
6666018884
ENDCHAR
STARTCHAR L
ENCODING 76
SWIDTH 604 0
DWIDTH 7 0
BBX 7 10 0 0
BITMAP
44440000
66660000
66660000
66660000
66660000
66660000
66660000
66672210
666B9980
666B9980
ENDCHAR
STARTCHAR M
ENCODING 77
SWIDTH 920 0
DWIDTH 11 0
BBX 11 10 0 0
BITMAP
556100015650
677700077760
658820288660
667770777660
667885887660
666778786660
666888796660
666633566660
666600066660
666600066660
ENDCHAR
STARTCHAR N
ENCODING 78
SWIDTH 877 0
DWIDTH 11 0
BBX 10 10 0 0
BITMAP
5555200666
6788700898
6588850898
6678881898
6667887898
6668888698
6666788878
6666178898
6666057888
666600788B
ENDCHAR
STARTCHAR O
ENCODING 79
SWIDTH 933 0
DWIDTH 11 0
BBX 11 12 0 -1
BITMAP
000001000000
002789873000
037889887500
078887888820
577730177770
667600038860
667500028860
677700077770
288876778840
067876787700
005887886000
000046510000
ENDCHAR
STARTCHAR P
ENCODING 80
SWIDTH 850 0
DWIDTH 10 0
BBX 10 10 0 0
BITMAP
5666666600
6777777781
6688998776
6668446886
6667668877
6667666886
6667666880
6667666400
6666000000
6666000000
ENDCHAR
STARTCHAR Q
ENCODING 81
SWIDTH 937 0
DWIDTH 11 0
BBX 11 13 0 -2
BITMAP
000001000000
002789873000
037889887500
078887888820
577730177770
667600038860
667500248860
677705697770
288877778840
067876787700
005887888500
000046538500
000000002000
ENDCHAR
STARTCHAR R
ENCODING 82
SWIDTH 843 0
DWIDTH 10 0
BBX 10 10 0 0
BITMAP
5666666610
6777777781
6688998776
6668447876
6668667877
6668667874
6669888870
6667499950
6666058770
6666018981
ENDCHAR
STARTCHAR S
ENCODING 83
SWIDTH 682 0
DWIDTH 8 0
BBX 8 12 0 -1
BITMAP
00011000
04799873
28899984
77777730
66785300
57778870
08766775
00667876
01467877
07766776
47877870
00465200
ENDCHAR
STARTCHAR T
ENCODING 84
SWIDTH 591 0
DWIDTH 7 0
BBX 7 10 0 0
BITMAP
46666640
47777750
46BBB640
00899000
00899000
00899000
00899000
00899000
00899000
00899000
ENDCHAR
STARTCHAR U
ENCODING 85
SWIDTH 905 0
DWIDTH 11 0
BBX 11 11 0 -1
BITMAP
444400044530
666600066850
666600066850
666600066850
666600066850
666600066850
676700077930
287876787800
077776778500
006887885000
000156400000
ENDCHAR
STARTCHAR V
ENCODING 86
SWIDTH 940 0
DWIDTH 11 0
BBX 11 10 0 0
BITMAP
555500036550
588700077770
078840188830
067770587700
028881778600
007777888100
005877777000
000777883000
000668770000
000297760000
ENDCHAR
STARTCHAR W
ENCODING 87
SWIDTH 1161 0
DWIDTH 14 0
BBX 14 10 0 0
BITMAP
54540555604555
67670788807685
38873889818882
07888778898870
0767778B7B7770
06768888877850
02878778888810
00797767A87700
00777846877600
00588811978400
ENDCHAR
STARTCHAR X
ENCODING 88
SWIDTH 876 0
DWIDTH 11 0
BBX 11 10 0 0
BITMAP
555500555500
287763777500
068767777000
008788882000
003777760000
000788850000
005888783000
017779787000
078882788600
388840687720
ENDCHAR
STARTCHAR Y
ENCODING 89
SWIDTH 789 0
DWIDTH 9 0
BBX 10 10 0 0
BITMAP
4553005661
3877048760
0778477830
0487787700
0078878400
0057887000
0009785000
0006793000
0006793000
0006793000
ENDCHAR
STARTCHAR Z
ENCODING 90
SWIDTH 854 0
DWIDTH 10 0
BBX 10 10 0 0
BITMAP
3666666677
3777776686
5999967886
2444578886
0006888871
0378888400
4788871000
4888558886
4885899997
5B89999997
ENDCHAR
STARTCHAR bracketleft
ENCODING 91
SWIDTH 320 0
DWIDTH 4 0
BBX 4 12 0 -1
BITMAP
1221
6794
6774
6660
6660
6660
6660
6660
6660
6682
6884
6663
ENDCHAR
STARTCHAR backslash
ENCODING 92
SWIDTH 448 0
DWIDTH 5 0
BBX 5 12 0 -2
BITMAP
555000
677000
388000
088400
077600
067700
038800
008840
007760
006770
003880
000110
ENDCHAR
STARTCHAR bracketright
ENCODING 93
SWIDTH 319 0
DWIDTH 4 0
BBX 4 12 0 -1
BITMAP
1221
6984
6684
0684
0684
0684
0684
0684
0684
3784
6884
4674
ENDCHAR
STARTCHAR asciicircum
ENCODING 94
SWIDTH 475 0
DWIDTH 6 0
BBX 6 6 0 3
BITMAP
004300
03A700
075840
185770
581481
110021
ENDCHAR
STARTCHAR underscore
ENCODING 95
SWIDTH 511 0
DWIDTH 6 0
BBX 6 3 0 -3
BITMAP
499995
499995
122221
ENDCHAR
STARTCHAR grave
ENCODING 96
SWIDTH 472 0
DWIDTH 6 0
BBX 6 4 0 8
BITMAP
030000
387400
027871
000230
ENDCHAR
STARTCHAR a
ENCODING 97
SWIDTH 832 0
DWIDTH 10 0
BBX 10 10 0 -1
BITMAP
0016776100
0377667820
1787888880
6777567784
6685006766
6676006666
4887668666
0789778666
0068988666
0001320000
ENDCHAR
STARTCHAR b
ENCODING 98
SWIDTH 720 0
DWIDTH 9 0
BBX 9 9 0 0
BITMAP
3666664000
6566661700
6676678220
6675557130
6677788700
6676678310
6662238130
6679988700
6665557300
ENDCHAR
STARTCHAR c
ENCODING 99
SWIDTH 736 0
DWIDTH 9 0
BBX 9 10 0 -1
BITMAP
0027667200
0487887830
1788997500
6777344000
6685000000
6676001000
5787777100
0778778830
0178778700
0002652000
ENDCHAR
STARTCHAR d
ENCODING 100
SWIDTH 833 0
DWIDTH 10 0
BBX 10 9 0 0
BITMAP
3666664000
6566678820
6676667880
6669667785
6666007676
6666007776
6678888773
6789998760
7899987500
ENDCHAR
STARTCHAR e
ENCODING 101
SWIDTH 666 0
DWIDTH 8 0
BBX 8 9 0 0
BITMAP
33366663
666A6663
666A6663
66684441
666B8882
666A6662
66672221
666B9995
666B9995
ENDCHAR
STARTCHAR f
ENCODING 102
SWIDTH 625 0
DWIDTH 8 0
BBX 8 9 0 0
BITMAP
33366661
666A6661
666A6661
66671110
666B9970
666B9970
66671110
66660000
66660000
ENDCHAR
STARTCHAR g
ENCODING 103
SWIDTH 827 0
DWIDTH 10 0
BBX 10 10 0 -1
BITMAP
0027667200
0487887830
1788997500
6777344000
6685002222
6676006666
578777A666
077877A666
017877A666
0002652000
ENDCHAR
STARTCHAR h
ENCODING 104
SWIDTH 830 0
DWIDTH 10 0
BBX 10 9 0 0
BITMAP
3333003333
6666006676
6666006676
666A669676
666A669676
666A669676
6666006676
6666006676
6666006676
ENDCHAR
STARTCHAR i
ENCODING 105
SWIDTH 337 0
DWIDTH 4 0
BBX 4 9 0 0
BITMAP
3333
6666
6666
6666
6666
6666
6666
6666
6666
ENDCHAR
STARTCHAR j
ENCODING 106
SWIDTH 393 0
DWIDTH 5 0
BBX 5 11 0 -2
BITMAP
033410
067930
067930
067930
067930
067930
068930
588810
587600
686000
210000
ENDCHAR
STARTCHAR k
ENCODING 107
SWIDTH 801 0
DWIDTH 10 0
BBX 10 9 0 0
BITMAP
3333003332
6666067770
6666177850
6666677700
6665888400
6666778600
6666487810
6666077760
6666038882
ENDCHAR
STARTCHAR l
ENCODING 108
SWIDTH 583 0
DWIDTH 7 0
BBX 7 9 0 0
BITMAP
33330000
66660000
66660000
66660000
66660000
66660000
66672210
666B9950
666B9950
ENDCHAR
STARTCHAR m
ENCODING 109
SWIDTH 1167 0
DWIDTH 14 0
BBX 14 9 0 0
BITMAP
00566755666500
0777878A787770
47789878A98774
66782776927766
66660666606666
66660666606666
66660666606666
66660666606666
66660666606666
ENDCHAR
STARTCHAR n
ENCODING 110
SWIDTH 787 0
DWIDTH 9 0
BBX 9 9 0 0
BITMAP
3333101430
6888703970
6688823970
6678873970
6678887970
6667888770
6661788A70
6660688880
66600788B0
ENDCHAR
STARTCHAR o
ENCODING 111
SWIDTH 833 0
DWIDTH 10 0
BBX 10 10 0 -1
BITMAP
0027667200
0487887830
1788988871
6777347776
6685006766
6676007766
5787777883
0778778770
0178778700
0002662000
ENDCHAR
STARTCHAR p
ENCODING 112
SWIDTH 781 0
DWIDTH 9 0
BBX 9 9 0 0
BITMAP
3666664000
6566668710
6676667770
6669667870
6667668870
6668888760
6668998700
6667220000
6666000000
ENDCHAR
STARTCHAR q
ENCODING 113
SWIDTH 788 0
DWIDTH 9 0
BBX 9 11 0 -2
BITMAP
0015666660
0477666770
2787667870
7678678970
6685019970
6777659970
2988759970
0488979970
0002439970
0000019970
0000002220
ENDCHAR
STARTCHAR r
ENCODING 114
SWIDTH 831 0
DWIDTH 10 0
BBX 10 9 0 0
BITMAP
3666666200
6566667860
6676667874
6669668766
6668777776
6669999882
6669998940
6667189920
6666067770
ENDCHAR
STARTCHAR s
ENCODING 115
SWIDTH 683 0
DWIDTH 8 0
BBX 8 10 0 -1
BITMAP
00566630
18767786
67766661
67844200
37789871
03766877
02200677
27988876
27889870
00122000
ENDCHAR
STARTCHAR t
ENCODING 116
SWIDTH 588 0
DWIDTH 7 0
BBX 7 9 0 0
BITMAP
46666640
46666640
46777640
00899000
00899000
00899000
00899000
00899000
00899000
ENDCHAR
STARTCHAR u
ENCODING 117
SWIDTH 795 0
DWIDTH 10 0
BBX 9 10 0 -1
BITMAP
3333003440
6666008990
6666008990
6666008990
6666008990
6667008890
5877678770
0787677740
0178787500
0003651000
ENDCHAR
STARTCHAR v
ENCODING 118
SWIDTH 855 0
DWIDTH 10 0
BBX 10 9 0 0
BITMAP
3333001443
6777006777
1888207884
0777748870
0388777760
0077788820
0067777700
0017778500
0009887000
ENDCHAR
STARTCHAR w
ENCODING 119
SWIDTH 1129 0
DWIDTH 14 0
BBX 14 10 0 -1
BITMAP
33330334203440
66660679407991
66660679407991
66660679407991
66660679407991
66660679407991
67776789868880
1888788B878760
03799988998600
00023100231000
ENDCHAR
STARTCHAR x
ENCODING 120
SWIDTH 790 0
DWIDTH 9 0
BBX 10 9 0 0
BITMAP
3333033331
3778788870
0777888710
0188777500
0038888000
0078777100
0377788700
0888877740
6777388881
ENDCHAR
STARTCHAR y
ENCODING 121
SWIDTH 733 0
DWIDTH 9 0
BBX 9 9 0 0
BITMAP
3342033330
5777078830
0788787600
0577778300
0078877000
0048784000
0008980000
0008980000
0008980000
ENDCHAR
STARTCHAR z
ENCODING 122
SWIDTH 714 0
DWIDTH 9 0
BBX 9 9 0 0
BITMAP
3666433310
3666877710
3667777600
0008887000
0067773000
0187870000
0887732200
4777799910
5888899910
ENDCHAR
STARTCHAR braceleft
ENCODING 123
SWIDTH 396 0
DWIDTH 5 0
BBX 5 14 0 -3
BITMAP
000110
028940
077840
079400
089300
089300
488100
477000
479100
089300
089300
078830
058630
003730
ENDCHAR
STARTCHAR bar
ENCODING 124
SWIDTH 266 0
DWIDTH 3 0
BBX 3 12 0 -2
BITMAP
4440
6660
6660
6660
6660
6660
6660
6660
6660
6660
6660
2220
ENDCHAR
STARTCHAR braceright
ENCODING 125
SWIDTH 396 0
DWIDTH 5 0
BBX 5 14 0 -3
BITMAP
110000
687000
687600
076700
067600
067710
028840
037840
067500
067600
066600
477700
478200
462000
ENDCHAR
STARTCHAR asciitilde
ENCODING 126
SWIDTH 665 0
DWIDTH 8 0
BBX 8 3 0 6
BITMAP
17677365
66799974
22244420
ENDCHAR
STARTCHAR uni00A0
ENCODING 160
SWIDTH 108 0
DWIDTH 1 0
BBX 1 1 0 0
BITMAP
00
ENDCHAR
STARTCHAR exclamdown
ENCODING 161
SWIDTH 336 0
DWIDTH 4 0
BBX 4 11 0 -1
BITMAP
4444
6666
6666
6666
6666
6666
6666
3333
3663
3663
3663
ENDCHAR
STARTCHAR cent
ENCODING 162
SWIDTH 708 0
DWIDTH 9 0
BBX 9 12 0 -1
BITMAP
0002350000
0000210000
0178987400
0878787710
5877676100
6776011000
6776010000
5877676100
0888688710
0178888400
0001310000
0003360000
ENDCHAR
STARTCHAR sterling
ENCODING 163
SWIDTH 689 0
DWIDTH 8 0
BBX 8 11 0 0
BITMAP
00001000
03799873
18899975
67776830
66660000
66686650
66686650
66686650
66672210
666B9970
666B9970
ENDCHAR
STARTCHAR currency
ENCODING 164
SWIDTH 715 0
DWIDTH 9 0
BBX 9 10 0 -1
BITMAP
0660017400
5777687810
0687678400
0770028400
0660007600
0670018400
0787678300
5787687810
1670018400
0100001000
ENDCHAR
STARTCHAR yen
ENCODING 165
SWIDTH 796 0
DWIDTH 10 0
BBX 10 10 0 0
BITMAP
4554005562
3887038770
0678467840
0388688700
0077878500
0047887000
0009675000
0587698810
0357697510
0006694000
ENDCHAR
STARTCHAR brokenbar
ENCODING 166
SWIDTH 263 0
DWIDTH 3 0
BBX 3 12 0 -2
BITMAP
4440
6660
6660
6660
6660
0000
2220
6660
6660
6660
6660
2220
ENDCHAR
STARTCHAR section
ENCODING 167
SWIDTH 108 0
DWIDTH 1 0
BBX 1 1 0 0
BITMAP
00
ENDCHAR
STARTCHAR dieresis
ENCODING 168
SWIDTH 556 0
DWIDTH 7 0
BBX 7 3 0 8
BITMAP
11101100
66608930
11101100
ENDCHAR
STARTCHAR copyright
ENCODING 169
SWIDTH 869 0
DWIDTH 10 0
BBX 11 11 0 0
BITMAP
000011000000
004A88980000
06815734A000
1A2B42765800
739200000A00
91A000000910
82B000000A00
475800251A00
0925A991A300
0196114A4000
000488610000
ENDCHAR
STARTCHAR ordfeminine
ENCODING 170
SWIDTH 833 0
DWIDTH 10 0
BBX 10 10 0 -1
BITMAP
0016776100
0377667830
1787788881
6777567785
6676006766
6667006766
3888668766
0778778766
0068988766
0000320000
ENDCHAR
STARTCHAR guillemotleft
ENCODING 171
SWIDTH 911 0
DWIDTH 11 0
BBX 11 7 0 1
BITMAP
000020000120
005781037740
478782787840
487821788600
595872B57830
027781167830
000051000330
ENDCHAR
STARTCHAR logicalnot
ENCODING 172
SWIDTH 718 0
DWIDTH 9 0
BBX 9 5 0 2
BITMAP
2555553300
4888889910
3666669910
0000009910
0000004410
ENDCHAR
STARTCHAR registered
ENCODING 174
SWIDTH 869 0
DWIDTH 10 0
BBX 11 11 0 0
BITMAP
000011000000
004A88980000
06800004A000
1A0A99A15800
730A00470A00
910A66A30910
820A47600A00
470A00B01A00
09250042A300
0196114A4000
000488610000
ENDCHAR
STARTCHAR degree
ENCODING 176
SWIDTH 330 0
DWIDTH 4 0
BBX 4 4 0 9
BITMAP
0440
5775
5775
1661
ENDCHAR
STARTCHAR plusminus
ENCODING 177
SWIDTH 598 0
DWIDTH 7 0
BBX 7 8 0 0
BITMAP
00455100
00689200
47889850
59889970
23789520
00688200
16666630
16666630
ENDCHAR
STARTCHAR uni00B2
ENCODING 178
SWIDTH 435 0
DWIDTH 5 0
BBX 5 8 0 2
BITMAP
366620
276780
000770
005820
028500
087000
696630
477740
ENDCHAR
STARTCHAR uni00B3
ENCODING 179
SWIDTH 515 0
DWIDTH 6 0
BBX 6 9 0 1
BITMAP
466720
376781
266776
026865
026784
026787
166787
386784
256620
ENDCHAR
STARTCHAR acute
ENCODING 180
SWIDTH 472 0
DWIDTH 6 0
BBX 6 4 0 8
BITMAP
000120
016881
388610
040000
ENDCHAR
STARTCHAR uni00B5
ENCODING 181
SWIDTH 802 0
DWIDTH 10 0
BBX 10 11 0 -2
BITMAP
3333003441
6666006892
6666006892
6666006892
6666006892
6666007892
6668678880
6668678750
6668788600
6668651000
2222000000
ENDCHAR
STARTCHAR paragraph
ENCODING 182
SWIDTH 676 0
DWIDTH 8 0
BBX 8 11 0 -2
BITMAP
00266664
06776666
47876866
66789766
7777A766
2889B766
0478B766
00017766
00006766
00006877
00002332
ENDCHAR
STARTCHAR periodcentered
ENCODING 183
SWIDTH 260 0
DWIDTH 3 0
BBX 3 3 0 4
BITMAP
3640
4740
3530
ENDCHAR
STARTCHAR cedilla
ENCODING 184
SWIDTH 321 0
DWIDTH 4 0
BBX 4 5 0 -5
BITMAP
0031
2774
6741
5662
0562
ENDCHAR
STARTCHAR uni00B9
ENCODING 185
SWIDTH 359 0
DWIDTH 4 0
BBX 4 7 0 3
BITMAP
4665
48A8
0586
0586
0586
0586
0586
ENDCHAR
STARTCHAR ordmasculine
ENCODING 186
SWIDTH 835 0
DWIDTH 10 0
BBX 10 10 0 -1
BITMAP
0027667200
0487887840
1788898881
6777337776
6676005866
6677007766
4787777874
0778778780
0178778710
0002662000
ENDCHAR
STARTCHAR guillemotright
ENCODING 187
SWIDTH 912 0
DWIDTH 11 0
BBX 11 7 0 1
BITMAP
200001200000
477301875000
487872878730
067871388830
3875B2785A50
387511877200
330001500000
ENDCHAR
STARTCHAR onequarter
ENCODING 188
SWIDTH 1236 0
DWIDTH 15 0
BBX 15 12 0 -2
BITMAP
4665004650000000
4997007770000000
0676007760366200
0676018820777000
0676058702884000
0676077707774600
0676077609988930
0000188207777740
0000487006667740
0000777000005800
0000776000000000
0000111000000000
ENDCHAR
STARTCHAR onehalf
ENCODING 189
SWIDTH 1154 0
DWIDTH 14 0
BBX 14 12 0 -2
BITMAP
46650046500000
49970077700000
06760077656650
06760188257676
06760587000185
06760777000780
06760776005820
00001882038500
00004870088441
00007770099991
00007760000000
00001110000000
ENDCHAR
STARTCHAR threequarters
ENCODING 190
SWIDTH 1345 0
DWIDTH 16 0
BBX 16 12 0 -2
BITMAP
4667200055500000
3767810078500000
2667760288106650
0368650677058810
0367840777077700
0367870785588273
1667772881799696
3867836770577776
2566107670566676
0000007850000193
0000028810000000
0000011100000000
ENDCHAR
STARTCHAR questiondown
ENCODING 191
SWIDTH 693 0
DWIDTH 8 0
BBX 8 11 0 0
BITMAP
00010000
27899740
36999884
02777887
01113888
06798887
06798783
06786620
04540000
08960000
08960000
ENDCHAR
STARTCHAR Agrave
ENCODING 192
SWIDTH 936 0
DWIDTH 11 0
BBX 11 14 0 0
BITMAP
002100000000
018761000000
001688300000
000004000000
000175640000
000677770000
000778881000
004877776000
007778887000
018882788400
067774877700
077899888810
388866677760
777700058770
ENDCHAR
STARTCHAR Aacute
ENCODING 193
SWIDTH 936 0
DWIDTH 11 0
BBX 11 14 0 0
BITMAP
000000003000
000000578300
000028871000
000003100000
000175640000
000677770000
000778881000
004877776000
007778887000
018882788400
067774877700
077899888810
388866677760
777700058770
ENDCHAR
STARTCHAR Acircumflex
ENCODING 194
SWIDTH 936 0
DWIDTH 11 0
BBX 11 14 0 0
BITMAP
000038600000
000077700000
000176840000
000000000000
000175640000
000677770000
000778881000
004877776000
007778887000
018882788400
067774877700
077899888810
388866677760
777700058770
ENDCHAR
STARTCHAR Atilde
ENCODING 195
SWIDTH 936 0
DWIDTH 11 0
BBX 11 13 0 0
BITMAP
004677737200
007889988000
002134431000
000175640000
000677770000
000778881000
004877776000
007778887000
018882788400
067774877700
077899888810
388866677760
777700058770
ENDCHAR
STARTCHAR Adieresis
ENCODING 196
SWIDTH 936 0
DWIDTH 11 0
BBX 11 13 0 0
BITMAP
001110111000
004970666000
000110111000
000175640000
000677770000
000778881000
004877776000
007778887000
018882788400
067774877700
077899888810
388866677760
777700058770
ENDCHAR
STARTCHAR Aring
ENCODING 197
SWIDTH 936 0
DWIDTH 11 0
BBX 11 14 0 0
BITMAP
000015200000
000086810000
000086920000
000035400000
000175640000
000677770000
000778881000
004877776000
007778887000
018882788400
067774877700
077899888810
388866677760
777700058770
ENDCHAR
STARTCHAR AE
ENCODING 198
SWIDTH 1198 0
DWIDTH 14 0
BBX 14 10 0 0
BITMAP
00017558666666
00067779777776
00077888866666
00487777600000
00777887977771
018882788A9992
06877487783331
07789988882221
3888666778B998
77770005879998
ENDCHAR
STARTCHAR Ccedilla
ENCODING 199
SWIDTH 852 0
DWIDTH 10 0
BBX 10 16 0 -5
BITMAP
0000010000
0027898730
0378898775
0788878873
5777301620
6676000000
6675000000
6777000400
2888767771
0678767877
0058878860
0000496100
0002774000
0006741000
0005661000
0000561000
ENDCHAR
STARTCHAR Egrave
ENCODING 200
SWIDTH 706 0
DWIDTH 8 0
BBX 8 14 0 0
BITMAP
03000000
38740000
02787100
00023000
44486666
666A7776
66696666
66660000
666A7600
666B9700
66683200
66672222
666B9999
666B9999
ENDCHAR
STARTCHAR Eacute
ENCODING 201
SWIDTH 706 0
DWIDTH 8 0
BBX 8 14 0 0
BITMAP
00000012
00001787
00048750
00004000
44486666
666A7776
66696666
66660000
666A7600
666B9700
66683200
66672222
666B9999
666B9999
ENDCHAR
STARTCHAR Ecircumflex
ENCODING 202
SWIDTH 706 0
DWIDTH 8 0
BBX 8 14 0 0
BITMAP
00078200
00177600
00576700
00000000
44486666
666A7776
66696666
66660000
666A7600
666B9700
66683200
66672222
666B9999
666B9999
ENDCHAR
STARTCHAR Edieresis
ENCODING 203
SWIDTH 706 0
DWIDTH 8 0
BBX 8 13 0 0
BITMAP
01110110
06660992
01110110
44486666
666A7776
66696666
66660000
666A7600
666B9700
66683200
66672222
666B9999
666B9999
ENDCHAR
STARTCHAR Igrave
ENCODING 204
SWIDTH 338 0
DWIDTH 4 0
BBX 6 14 -2 0
BITMAP
020000
587300
047860
000310
004444
006666
006666
006666
006666
006666
006666
006666
006666
006666
ENDCHAR
STARTCHAR Iacute
ENCODING 205
SWIDTH 338 0
DWIDTH 4 0
BBX 6 14 0 0
BITMAP
000021
003786
068740
013000
444400
666600
666600
666600
666600
666600
666600
666600
666600
666600
ENDCHAR
STARTCHAR Icircumflex
ENCODING 206
SWIDTH 338 0
DWIDTH 4 0
BBX 4 14 0 0
BITMAP
0A70
3684
6676
0000
4444
6666
6666
6666
6666
6666
6666
6666
6666
6666
ENDCHAR
STARTCHAR Idieresis
ENCODING 207
SWIDTH 338 0
DWIDTH 4 0
BBX 6 13 -1 0
BITMAP
111111
694497
111111
044440
066660
066660
066660
066660
066660
066660
066660
066660
066660
ENDCHAR
STARTCHAR Eth
ENCODING 208
SWIDTH 905 0
DWIDTH 11 0
BBX 11 10 0 0
BITMAP
376666661000
487777678100
497899877800
386744678830
577750067760
699960067760
487720277840
497688888800
497999988300
499999872000
ENDCHAR
STARTCHAR Ntilde
ENCODING 209
SWIDTH 877 0
DWIDTH 11 0
BBX 10 13 0 0
BITMAP
0076775650
0477999760
0121444300
5555200666
6788700898
6588850898
6678881898
6667887898
6668888698
6666788878
6666178898
6666057888
666600788B
ENDCHAR
STARTCHAR Ograve
ENCODING 210
SWIDTH 933 0
DWIDTH 11 0
BBX 11 15 0 -1
BITMAP
002100000000
018761000000
001688300000
000003000000
002789873000
037889887500
078887888820
577730177770
667600038860
667500028860
677700077770
288876778840
067876787700
005887886000
000046510000
ENDCHAR
STARTCHAR Oacute
ENCODING 211
SWIDTH 933 0
DWIDTH 11 0
BBX 11 15 0 -1
BITMAP
000000003000
000000578200
000028871000
000005200000
002789873000
037889887500
078887888820
577730177770
667600038860
667500028860
677700077770
288876778840
067876787700
005887886000
000046510000
ENDCHAR
STARTCHAR Ocircumflex
ENCODING 212
SWIDTH 933 0
DWIDTH 11 0
BBX 11 15 0 -1
BITMAP
000038600000
000077700000
000176830000
000001000000
002789873000
037889887500
078887888820
577730177770
667600038860
667500028860
677700077770
288876778840
067876787700
005887886000
000046510000
ENDCHAR
STARTCHAR Otilde
ENCODING 213
SWIDTH 933 0
DWIDTH 11 0
BBX 11 14 0 -1
BITMAP
004677737200
007889988000
002145431000
002789873000
037889887500
078887888820
577730177770
667600038860
667500028860
677700077770
288876778840
067876787700
005887886000
000046510000
ENDCHAR
STARTCHAR Odieresis
ENCODING 214
SWIDTH 933 0
DWIDTH 11 0
BBX 11 14 0 -1
BITMAP
001110111000
004960666000
001111111000
002789873000
037889887500
078887888820
577730177770
667600038860
667500028860
677700077770
288876778840
067876787700
005887886000
000046510000
ENDCHAR
STARTCHAR multiply
ENCODING 215
SWIDTH 790 0
DWIDTH 9 0
BBX 10 9 0 0
BITMAP
3333033331
3778788870
0777888710
0188777500
0038888000
0078777100
0377788700
0888877740
6777388881
ENDCHAR
STARTCHAR Oslash
ENCODING 216
SWIDTH 938 0
DWIDTH 11 0
BBX 11 14 0 -2
BITMAP
000000021000
000001067400
002789877300
037889887500
188887888820
678730178770
667600038860
667500028860
677700078770
288876778840
067876787700
008887887000
058646510000
003600000000
ENDCHAR
STARTCHAR Ugrave
ENCODING 217
SWIDTH 905 0
DWIDTH 11 0
BBX 11 15 0 -1
BITMAP
003000000000
028750000000
001787200000
000013000000
444400044530
666600066850
666600066850
666600066850
666600066850
666600066850
676700077930
287876787800
077776778500
006887885000
000156400000
ENDCHAR
STARTCHAR Uacute
ENCODING 218
SWIDTH 905 0
DWIDTH 11 0
BBX 11 15 0 -1
BITMAP
000000012000
000001688100
000038861000
000004000000
444400044530
666600066850
666600066850
666600066850
666600066850
666600066850
676700077930
287876787800
077776778500
006887885000
000156400000
ENDCHAR
STARTCHAR Ucircumflex
ENCODING 219
SWIDTH 905 0
DWIDTH 11 0
BBX 11 15 0 -1
BITMAP
000067300000
000077700000
000386710000
000000000000
444400044530
666600066850
666600066850
666600066850
666600066850
666600066850
676700077930
287876787800
077776778500
006887885000
000156400000
ENDCHAR
STARTCHAR Udieresis
ENCODING 220
SWIDTH 905 0
DWIDTH 11 0
BBX 11 14 0 -1
BITMAP
001110111000
006660794000
001110111000
444400044530
666600066850
666600066850
666600066850
666600066850
666600066850
676700077930
287876787800
077776778500
006887885000
000156400000
ENDCHAR
STARTCHAR Yacute
ENCODING 221
SWIDTH 789 0
DWIDTH 9 0
BBX 10 14 0 0
BITMAP
0000000300
0000057830
0001787200
0000320000
4553005661
3877048760
0778477830
0487787700
0078878400
0057887000
0009785000
0006793000
0006793000
0006793000
ENDCHAR
STARTCHAR Thorn
ENCODING 222
SWIDTH 798 0
DWIDTH 10 0
BBX 10 12 0 -1
BITMAP
1111000000
6667100000
666B987200
666B988830
666A888870
6666017892
6666007892
6668678870
6668678740
6669898500
6668441000
5555000000
ENDCHAR
STARTCHAR germandbls
ENCODING 223
SWIDTH 826 0
DWIDTH 10 0
BBX 10 12 0 -1
BITMAP
0001221000
0279998710
1878888870
6777667783
6668448684
6669999781
6668668884
6666007666
6669888775
6669998880
6669998710
5555000000
ENDCHAR
STARTCHAR agrave
ENCODING 224
SWIDTH 832 0
DWIDTH 10 0
BBX 10 14 0 -1
BITMAP
0120000000
0787200000
0057850000
0000400000
0016776100
0377667820
1787888880
6777567784
6685006766
6676006666
4887668666
0789778666
0068988666
0001320000
ENDCHAR
STARTCHAR aacute
ENCODING 225
SWIDTH 832 0
DWIDTH 10 0
BBX 10 14 0 -1
BITMAP
0000000300
0000047840
0000787300
0000220000
0016776100
0377667820
1787888880
6777567784
6685006766
6676006666
4887668666
0789778666
0068988666
0001320000
ENDCHAR
STARTCHAR acircumflex
ENCODING 226
SWIDTH 832 0
DWIDTH 10 0
BBX 10 13 0 -1
BITMAP
0001A60000
0006681000
0007676000
0016776100
0377667820
1787888880
6777567784
6685006766
6676006666
4887668666
0789778666
0068988666
0001320000
ENDCHAR
STARTCHAR atilde
ENCODING 227
SWIDTH 832 0
DWIDTH 10 0
BBX 10 13 0 -1
BITMAP
0377773650
0778999820
0222444100
0016776100
0377667820
1787888880
6777567784
6685006766
6676006666
4887668666
0789778666
0068988666
0001320000
ENDCHAR
STARTCHAR adieresis
ENCODING 228
SWIDTH 832 0
DWIDTH 10 0
BBX 10 13 0 -1
BITMAP
0011011100
0099166600
0011011100
0016776100
0377667820
1787888880
6777567784
6685006766
6676006666
4887668666
0789778666
0068988666
0001320000
ENDCHAR
STARTCHAR aring
ENCODING 229
SWIDTH 832 0
DWIDTH 10 0
BBX 10 14 0 -1
BITMAP
0000440000
0005774000
0006775000
0001660000
0016776100
0377667820
1787888880
6777567784
6685006766
6676006666
4887668666
0789778666
0068988666
0001320000
ENDCHAR
STARTCHAR ae
ENCODING 230
SWIDTH 1166 0
DWIDTH 14 0
BBX 14 10 0 -1
BITMAP
00167762366663
037766786A6663
178788888A6663
677756778A4441
668500676B8882
667600666A6662
48876686672221
078977866B9995
006898866B9995
00013200000000
ENDCHAR
STARTCHAR ccedilla
ENCODING 231
SWIDTH 736 0
DWIDTH 9 0
BBX 9 14 0 -5
BITMAP
0027667200
0487887830
1788997500
6777344000
6685000000
6676001000
5787777100
0778778830
0178778700
0002882000
0007670000
0028620000
0018740000
0003640000
ENDCHAR
STARTCHAR egrave
ENCODING 232
SWIDTH 666 0
DWIDTH 8 0
BBX 8 13 0 0
BITMAP
03000000
58730000
04786000
00031000
33366663
666A6663
666A6663
66684441
666B8882
666A6662
66672221
666B9995
666B9995
ENDCHAR
STARTCHAR eacute
ENCODING 233
SWIDTH 666 0
DWIDTH 8 0
BBX 8 13 0 0
BITMAP
00000021
00003786
00068740
00014000
33366663
666A6663
666A6663
66684441
666B8882
666A6662
66672221
666B9995
666B9995
ENDCHAR
STARTCHAR ecircumflex
ENCODING 234
SWIDTH 666 0
DWIDTH 8 0
BBX 8 12 0 0
BITMAP
000A7000
00368400
00667600
33366663
666A6663
666A6663
66684441
666B8882
666A6662
66672221
666B9995
666B9995
ENDCHAR
STARTCHAR edieresis
ENCODING 235
SWIDTH 666 0
DWIDTH 8 0
BBX 8 12 0 0
BITMAP
01111110
06844970
01110110
33366663
666A6663
666A6663
66684441
666B8882
666A6662
66672221
666B9995
666B9995
ENDCHAR
STARTCHAR igrave
ENCODING 236
SWIDTH 337 0
DWIDTH 4 0
BBX 6 13 -2 0
BITMAP
020000
587300
047860
000310
003333
006666
006666
006666
006666
006666
006666
006666
006666
ENDCHAR
STARTCHAR iacute
ENCODING 237
SWIDTH 337 0
DWIDTH 4 0
BBX 6 13 0 0
BITMAP
000021
003786
068740
013000
333300
666600
666600
666600
666600
666600
666600
666600
666600
ENDCHAR
STARTCHAR icircumflex
ENCODING 238
SWIDTH 337 0
DWIDTH 4 0
BBX 4 12 0 0
BITMAP
0A70
3684
6676
3333
6666
6666
6666
6666
6666
6666
6666
6666
ENDCHAR
STARTCHAR idieresis
ENCODING 239
SWIDTH 337 0
DWIDTH 4 0
BBX 6 12 -1 0
BITMAP
111111
694497
111111
033330
066660
066660
066660
066660
066660
066660
066660
066660
ENDCHAR
STARTCHAR eth
ENCODING 240
SWIDTH 783 0
DWIDTH 9 0
BBX 9 12 0 -1
BITMAP
0001200000
0478987200
0579997720
0047688770
0000138970
0479969980
3789869980
6687649880
6787678770
4787678750
0589787500
0014651000
ENDCHAR
STARTCHAR ntilde
ENCODING 241
SWIDTH 787 0
DWIDTH 9 0
BBX 9 12 0 0
BITMAP
0477773730
0788998810
0213444100
3333101430
6888703970
6688823970
6678873970
6678887970
6667888770
6661788A70
6660688880
66600788B0
ENDCHAR
STARTCHAR ograve
ENCODING 242
SWIDTH 833 0
DWIDTH 10 0
BBX 10 14 0 -1
BITMAP
0120000000
0687200000
0047860000
0000410000
0027667200
0487887830
1788988871
6777347776
6685006766
6676007766
5787777883
0778778770
0178778700
0002662000
ENDCHAR
STARTCHAR oacute
ENCODING 243
SWIDTH 833 0
DWIDTH 10 0
BBX 10 14 0 -1
BITMAP
0000000300
0000037850
0000687300
0000130000
0027667200
0487887830
1788988871
6777347776
6685006766
6676007766
5787777883
0778778770
0178778700
0002662000
ENDCHAR
STARTCHAR ocircumflex
ENCODING 244
SWIDTH 833 0
DWIDTH 10 0
BBX 10 13 0 -1
BITMAP
0000A60000
0004683000
0006676000
0027667200
0487887830
1788988871
6777347776
6685006766
6676007766
5787777883
0778778770
0178778700
0002662000
ENDCHAR
STARTCHAR otilde
ENCODING 245
SWIDTH 833 0
DWIDTH 10 0
BBX 10 13 0 -1
BITMAP
0276773650
0778999730
0222444200
0027667200
0487887830
1788988871
6777347776
6685006766
6676007766
5787777883
0778778770
0178778700
0002662000
ENDCHAR
STARTCHAR odieresis
ENCODING 246
SWIDTH 833 0
DWIDTH 10 0
BBX 10 13 0 -1
BITMAP
0011111100
0079348600
0011011100
0027667200
0487887830
1788988871
6777347776
6685006766
6676007766
5787777883
0778778770
0178778700
0002662000
ENDCHAR
STARTCHAR divide
ENCODING 247
SWIDTH 260 0
DWIDTH 3 0
BBX 5 8 -1 0
BITMAP
033300
066600
044400
266630
266630
044400
066600
033300
ENDCHAR
STARTCHAR oslash
ENCODING 248
SWIDTH 832 0
DWIDTH 10 0
BBX 10 11 0 -1
BITMAP
0000003300
0027668650
0487877840
1788987881
6777347775
6685006766
6676007766
4777777783
0778668780
0478778700
0266662000
ENDCHAR
STARTCHAR ugrave
ENCODING 249
SWIDTH 795 0
DWIDTH 10 0
BBX 9 14 0 -1
BITMAP
0210000000
0787100000
0057840000
0000400000
3333003440
6666008990
6666008990
6666008990
6666008990
6667008890
5877678770
0787677740
0178787500
0003651000
ENDCHAR
STARTCHAR uacute
ENCODING 250
SWIDTH 795 0
DWIDTH 10 0
BBX 9 14 0 -1
BITMAP
0000000300
0000047840
0001787200
0000320000
3333003440
6666008990
6666008990
6666008990
6666008990
6667008890
5877678770
0787677740
0178787500
0003651000
ENDCHAR
STARTCHAR ucircumflex
ENCODING 251
SWIDTH 795 0
DWIDTH 10 0
BBX 9 13 0 -1
BITMAP
0001960000
0006781000
0007675000
3333003440
6666008990
6666008990
6666008990
6666008990
6667008890
5877678770
0787677740
0178787500
0003651000
ENDCHAR
STARTCHAR udieresis
ENCODING 252
SWIDTH 795 0
DWIDTH 10 0
BBX 9 13 0 -1
BITMAP
0011011100
0299066600
0011011100
3333003440
6666008990
6666008990
6666008990
6666008990
6667008890
5877678770
0787677740
0178787500
0003651000
ENDCHAR
STARTCHAR yacute
ENCODING 253
SWIDTH 733 0
DWIDTH 9 0
BBX 9 13 0 0
BITMAP
0000001200
0000168810
0003886100
0000400000
3342033330
5777078830
0788787600
0577778300
0078877000
0048784000
0008980000
0008980000
0008980000
ENDCHAR
STARTCHAR thorn
ENCODING 254
SWIDTH 833 0
DWIDTH 10 0
BBX 10 12 0 -2
BITMAP
4444000000
6666000000
6666222000
6664998840
6664888872
6665667777
6665667766
6665667874
6665777750
6665665200
6666000000
2222000000
ENDCHAR
STARTCHAR ydieresis
ENCODING 255
SWIDTH 733 0
DWIDTH 9 0
BBX 9 12 0 0
BITMAP
0111011100
0666079400
0111011100
3342033330
5777078830
0788787600
0577778300
0078877000
0048784000
0008980000
0008980000
0008980000
ENDCHAR
STARTCHAR Amacron
ENCODING 256
SWIDTH 936 0
DWIDTH 11 0
BBX 11 10 0 0
BITMAP
000175640000
000677770000
000778881000
004877776000
007778887000
018882788400
067774877700
077899888810
388866677760
777700058770
ENDCHAR
STARTCHAR amacron
ENCODING 257
SWIDTH 832 0
DWIDTH 10 0
BBX 10 10 0 -1
BITMAP
0016776100
0377667820
1787888880
6777567784
6685006766
6676006666
4887668666
0789778666
0068988666
0001320000
ENDCHAR
STARTCHAR Abreve
ENCODING 258
SWIDTH 936 0
DWIDTH 11 0
BBX 11 12 0 0
BITMAP
000175630000
000035400000
000175640000
000677770000
000778881000
004877776000
007778887000
018882788400
067774877700
077899888810
388866677760
777700058770
ENDCHAR
STARTCHAR abreve
ENCODING 259
SWIDTH 832 0
DWIDTH 10 0
BBX 10 12 0 -1
BITMAP
0006565000
0002550000
0016776100
0377667820
1787888880
6777567784
6685006766
6676006666
4887668666
0789778666
0068988666
0001320000
ENDCHAR
STARTCHAR Aogonek
ENCODING 260
SWIDTH 937 0
DWIDTH 11 0
BBX 11 14 0 -4
BITMAP
000175540000
000577770000
000768882000
002877777000
007777887000
008883778500
058774887700
077799888820
288866687770
777734048870
000474000000
000672000000
000666000000
000222000000
ENDCHAR
STARTCHAR aogonek
ENCODING 261
SWIDTH 832 0
DWIDTH 10 0
BBX 10 14 0 -5
BITMAP
0016776100
0377667820
1787888880
6777567784
6685006766
6676006666
4887668666
0789778666
0068988666
0002820000
0018600000
0039300000
0049700000
0013300000
ENDCHAR
STARTCHAR Cacute
ENCODING 262
SWIDTH 852 0
DWIDTH 10 0
BBX 10 15 0 -1
BITMAP
0000000030
0000005782
0000288710
0000051000
0027898730
0378898775
0788878873
5777301620
6676000000
6675000000
6777000400
2888767771
0678767877
0058878860
0000465100
ENDCHAR
STARTCHAR cacute
ENCODING 263
SWIDTH 736 0
DWIDTH 9 0
BBX 9 14 0 -1
BITMAP
0000000300
0000037850
0000687300
0000130000
0027667200
0487887830
1788997500
6777344000
6685000000
6676001000
5787777100
0778778830
0178778700
0002652000
ENDCHAR
STARTCHAR Cdotaccent
ENCODING 266
SWIDTH 852 0
DWIDTH 10 0
BBX 10 14 0 -1
BITMAP
0000364000
0000374000
0000384000
0027898730
0378898775
0788878873
5777301620
6676000000
6675000000
6777000400
2888767771
0678767877
0058878860
0000465100
ENDCHAR
STARTCHAR cdotaccent
ENCODING 267
SWIDTH 736 0
DWIDTH 9 0
BBX 9 13 0 -1
BITMAP
0001660000
0001770000
0001660000
0027667200
0487887830
1788997500
6777344000
6685000000
6676001000
5787777100
0778778830
0178778700
0002652000
ENDCHAR
STARTCHAR Ccaron
ENCODING 268
SWIDTH 852 0
DWIDTH 10 0
BBX 10 15 0 -1
BITMAP
0001767300
0000777000
0000486000
0000010000
0027898730
0378898775
0788878873
5777301620
6676000000
6675000000
6777000400
2888767771
0678767877
0058878860
0000465100
ENDCHAR
STARTCHAR ccaron
ENCODING 269
SWIDTH 736 0
DWIDTH 9 0
BBX 9 13 0 -1
BITMAP
0006666000
0004583000
0000B70000
0027667200
0487887830
1788997500
6777344000
6685000000
6676001000
5787777100
0778778830
0178778700
0002652000
ENDCHAR
STARTCHAR Dcaron
ENCODING 270
SWIDTH 886 0
DWIDTH 11 0
BBX 11 14 0 0
BITMAP
000376710000
000077700000
000068400000
000000000000
566666650000
677777688000
668899777700
666844788800
666600078830
666600078830
666600488810
667888888700
678999888100
789999871000
ENDCHAR
STARTCHAR dcaron
ENCODING 271
SWIDTH 1084 0
DWIDTH 13 0
BBX 13 10 0 0
BITMAP
00000000001110
36666640006660
65666788204660
66766678803660
66696677853610
66660076760000
66660077760000
66788887730000
67899987600000
78999875000000
ENDCHAR
STARTCHAR Dcroat
ENCODING 272
SWIDTH 888 0
DWIDTH 11 0
BBX 12 10 -1 0
BITMAP
056666665000
067777768800
066889977770
066684478880
546648107883
166661007883
276673048881
066788888870
067899988810
078999987100
ENDCHAR
STARTCHAR dcroat
ENCODING 273
SWIDTH 833 0
DWIDTH 10 0
BBX 11 9 -1 0
BITMAP
036666640000
065666788200
066766678800
066696677850
446656176760
486686177760
066788887730
067899987600
078999875000
ENDCHAR
STARTCHAR Emacron
ENCODING 274
SWIDTH 706 0
DWIDTH 8 0
BBX 8 10 0 0
BITMAP
44486666
666A7776
66696666
66660000
666A7600
666B9700
66683200
66672222
666B9999
666B9999
ENDCHAR
STARTCHAR emacron
ENCODING 275
SWIDTH 666 0
DWIDTH 8 0
BBX 8 9 0 0
BITMAP
33366663
666A6663
666A6663
66684441
666B8882
666A6662
66672221
666B9995
666B9995
ENDCHAR
STARTCHAR Ebreve
ENCODING 276
SWIDTH 706 0
DWIDTH 8 0
BBX 8 12 0 0
BITMAP
00465700
00055200
44486666
666A7776
66696666
66660000
666A7600
666B9700
66683200
66672222
666B9999
666B9999
ENDCHAR
STARTCHAR ebreve
ENCODING 277
SWIDTH 666 0
DWIDTH 8 0
BBX 8 11 0 0
BITMAP
00565600
00155100
33366663
666A6663
666A6663
66684441
666B8882
666A6662
66672221
666B9995
666B9995
ENDCHAR
STARTCHAR Edotaccent
ENCODING 278
SWIDTH 706 0
DWIDTH 8 0
BBX 8 13 0 0
BITMAP
00056200
00067200
00045200
44486666
666A7776
66696666
66660000
666A7600
666B9700
66683200
66672222
666B9999
666B9999
ENDCHAR
STARTCHAR edotaccent
ENCODING 279
SWIDTH 666 0
DWIDTH 8 0
BBX 8 12 0 0
BITMAP
00066100
00077100
00055000
33366663
666A6663
666A6663
66684441
666B8882
666A6662
66672221
666B9995
666B9995
ENDCHAR
STARTCHAR Eogonek
ENCODING 280
SWIDTH 706 0
DWIDTH 8 0
BBX 8 14 0 -4
BITMAP
44486666
666A7776
66696666
66660000
666A7600
666B9700
66683200
66672222
666B9999
666B99AE
00000087
00000294
00000298
00000133
ENDCHAR
STARTCHAR eogonek
ENCODING 281
SWIDTH 666 0
DWIDTH 8 0
BBX 8 13 0 -4
BITMAP
33366663
666A6663
666A6663
66684441
666B8882
666A6662
66672221
666B9995
666B99C8
00000564
00000672
00000666
00000222
ENDCHAR
STARTCHAR Ecaron
ENCODING 282
SWIDTH 706 0
DWIDTH 8 0
BBX 8 14 0 0
BITMAP
00576700
00177700
00088200
00000000
44486666
666A7776
66696666
66660000
666A7600
666B9700
66683200
66672222
666B9999
666B9999
ENDCHAR
STARTCHAR ecaron
ENCODING 283
SWIDTH 666 0
DWIDTH 8 0
BBX 8 12 0 0
BITMAP
00666600
00368400
000A7000
33366663
666A6663
666A6663
66684441
666B8882
666A6662
66672221
666B9995
666B9995
ENDCHAR
STARTCHAR Gbreve
ENCODING 286
SWIDTH 908 0
DWIDTH 11 0
BBX 11 13 0 -1
BITMAP
000175630000
000036500000
002789873000
037889877500
078887887300
577730162000
667600000000
668500066760
677700066760
2778766A6760
0677767A6760
0067878A6760
000146520000
ENDCHAR
STARTCHAR gbreve
ENCODING 287
SWIDTH 827 0
DWIDTH 10 0
BBX 10 12 0 -1
BITMAP
0006665000
0001551000
0027667200
0487887830
1788997500
6777344000
6685002222
6676006666
578777A666
077877A666
017877A666
0002652000
ENDCHAR
STARTCHAR Gdotaccent
ENCODING 288
SWIDTH 908 0
DWIDTH 11 0
BBX 11 14 0 -1
BITMAP
000036400000
000037400000
000038400000
002789873000
037889877500
078887887300
577730162000
667600000000
668500066760
677700066760
2778766A6760
0677767A6760
0067878A6760
000146520000
ENDCHAR
STARTCHAR gdotaccent
ENCODING 289
SWIDTH 827 0
DWIDTH 10 0
BBX 10 13 0 -1
BITMAP
0001660000
0001770000
0001660000
0027667200
0487887830
1788997500
6777344000
6685002222
6676006666
578777A666
077877A666
017877A666
0002652000
ENDCHAR
STARTCHAR Gcommaaccent
ENCODING 290
SWIDTH 908 0
DWIDTH 11 0
BBX 11 16 0 -5
BITMAP
000001000000
002789873000
037889877500
078887887300
577730162000
667600000000
668500066760
677700066760
2778766A6760
0677767A6760
0067878A6760
000157620000
000066600000
000036600000
000036600000
000036100000
ENDCHAR
STARTCHAR gcommaaccent
ENCODING 291
SWIDTH 827 0
DWIDTH 10 0
BBX 10 10 0 -1
BITMAP
0027667200
0487887830
1788997500
6777344000
6685002222
6676006666
578777A666
077877A666
017877A666
0002652000
ENDCHAR
STARTCHAR Hcircumflex
ENCODING 292
SWIDTH 901 0
DWIDTH 11 0
BBX 11 14 0 0
BITMAP
000067300000
000077700000
000386710000
000000000000
444400045630
666600067940
666600067940
666600067940
666A77787940
666B99997940
666833377940
666600067940
666600067940
666600067940
ENDCHAR
STARTCHAR hcircumflex
ENCODING 293
SWIDTH 830 0
DWIDTH 10 0
BBX 10 12 0 0
BITMAP
0000A60000
0004683000
0006676000
3333003333
6666006676
6666006676
666A669676
666A669676
666A669676
6666006676
6666006676
6666006676
ENDCHAR
STARTCHAR Hbar
ENCODING 294
SWIDTH 901 0
DWIDTH 11 0
BBX 12 10 -1 0
BITMAP
044440004563
246656666790
286686667797
066660006794
0666A7778794
0666B9999794
066683337794
066660006794
066660006794
066660006794
ENDCHAR
STARTCHAR hbar
ENCODING 295
SWIDTH 830 0
DWIDTH 10 0
BBX 12 9 -1 0
BITMAP
033330033330
146656656641
186686686691
0666A6696660
0666A6696660
0666A6696660
066660066660
066660066660
066660066660
ENDCHAR
STARTCHAR Itilde
ENCODING 296
SWIDTH 338 0
DWIDTH 4 0
BBX 8 13 -2 0
BITMAP
17677365
66799974
22244420
00444400
00666600
00666600
00666600
00666600
00666600
00666600
00666600
00666600
00666600
ENDCHAR
STARTCHAR itilde
ENCODING 297
SWIDTH 337 0
DWIDTH 4 0
BBX 8 12 -2 0
BITMAP
17677365
66799974
22244420
00333300
00666600
00666600
00666600
00666600
00666600
00666600
00666600
00666600
ENDCHAR
STARTCHAR Imacron
ENCODING 298
SWIDTH 338 0
DWIDTH 4 0
BBX 4 10 0 0
BITMAP
4444
6666
6666
6666
6666
6666
6666
6666
6666
6666
ENDCHAR
STARTCHAR imacron
ENCODING 299
SWIDTH 337 0
DWIDTH 4 0
BBX 4 9 0 0
BITMAP
3333
6666
6666
6666
6666
6666
6666
6666
6666
ENDCHAR
STARTCHAR Ibreve
ENCODING 300
SWIDTH 338 0
DWIDTH 4 0
BBX 4 12 0 0
BITMAP
5665
1551
4444
6666
6666
6666
6666
6666
6666
6666
6666
6666
ENDCHAR
STARTCHAR ibreve
ENCODING 301
SWIDTH 337 0
DWIDTH 4 0
BBX 4 11 0 0
BITMAP
5665
1551
3333
6666
6666
6666
6666
6666
6666
6666
6666
ENDCHAR
STARTCHAR Iogonek
ENCODING 302
SWIDTH 338 0
DWIDTH 4 0
BBX 4 14 0 -4
BITMAP
4444
6666
6666
6666
6666
6666
6666
6666
6666
66A9
0663
0672
0666
0222
ENDCHAR
STARTCHAR iogonek
ENCODING 303
SWIDTH 337 0
DWIDTH 4 0
BBX 4 13 0 -4
BITMAP
3333
6666
6666
6666
6666
6666
6666
6666
66A9
0563
0672
0666
0222
ENDCHAR
STARTCHAR Idotaccent
ENCODING 304
SWIDTH 338 0
DWIDTH 4 0
BBX 4 13 0 0
BITMAP
0660
0770
0660
4444
6666
6666
6666
6666
6666
6666
6666
6666
6666
ENDCHAR
STARTCHAR dotlessi
ENCODING 305
SWIDTH 337 0
DWIDTH 4 0
BBX 4 9 0 0
BITMAP
3333
6666
6666
6666
6666
6666
6666
6666
6666
ENDCHAR
STARTCHAR IJ
ENCODING 306
SWIDTH 774 0
DWIDTH 9 0
BBX 9 11 0 -1
BITMAP
4444026540
6666039760
6666039760
6666039760
6666039760
6666039760
6666039760
6666488770
6666478830
6666478500
0000462000
ENDCHAR
STARTCHAR ij
ENCODING 307
SWIDTH 729 0
DWIDTH 9 0
BBX 9 11 0 -2
BITMAP
3333033420
6666067940
6666067940
6666067940
6666067940
6666067940
6666067930
6666588810
6666587600
0000686000
0000210000
ENDCHAR
STARTCHAR Jcircumflex
ENCODING 308
SWIDTH 434 0
DWIDTH 5 0
BBX 5 15 0 -1
BITMAP
008710
017860
067670
000000
036440
049660
049660
049660
049660
049660
048660
587770
578820
588500
551000
ENDCHAR
STARTCHAR jcircumflex
ENCODING 309
SWIDTH 393 0
DWIDTH 5 0
BBX 5 14 0 -2
BITMAP
029600
077800
076750
033410
067930
067930
067930
067930
067930
068930
588810
587600
686000
210000
ENDCHAR
STARTCHAR Kcommaaccent
ENCODING 310
SWIDTH 815 0
DWIDTH 10 0
BBX 10 15 0 -5
BITMAP
4444005554
6666058770
6666077750
6666687700
6667778500
6668888400
6666777700
6666188840
6666067770
6666018884
0000110000
0000991000
0000691000
0000780000
0000630000
ENDCHAR
STARTCHAR kcommaaccent
ENCODING 311
SWIDTH 801 0
DWIDTH 10 0
BBX 10 14 0 -5
BITMAP
3333003332
6666067770
6666177850
6666677700
6665888400
6666778600
6666487810
6666077760
6666038882
0000110000
0001990000
0001790000
0001770000
0001630000
ENDCHAR
STARTCHAR kgreenlandic
ENCODING 312
SWIDTH 801 0
DWIDTH 10 0
BBX 10 9 0 0
BITMAP
3333003332
6666067770
6666177850
6666677700
6665888400
6666778600
6666487810
6666077760
6666038882
ENDCHAR
STARTCHAR Lacute
ENCODING 313
SWIDTH 604 0
DWIDTH 7 0
BBX 8 14 0 0
BITMAP
00000030
00005783
00178720
00032000
44440000
66660000
66660000
66660000
66660000
66660000
66660000
66672210
666B9980
666B9980
ENDCHAR
STARTCHAR lacute
ENCODING 314
SWIDTH 583 0
DWIDTH 7 0
BBX 7 13 0 0
BITMAP
00002100
00378600
06874000
01300000
33330000
66660000
66660000
66660000
66660000
66660000
66672210
666B9950
666B9950
ENDCHAR
STARTCHAR Lcommaaccent
ENCODING 315
SWIDTH 604 0
DWIDTH 7 0
BBX 7 15 0 -5
BITMAP
44440000
66660000
66660000
66660000
66660000
66660000
66660000
66672210
666B9980
666B9980
00111000
00586000
00376000
00267000
00261000
ENDCHAR
STARTCHAR lcommaaccent
ENCODING 316
SWIDTH 583 0
DWIDTH 7 0
BBX 7 14 0 -5
BITMAP
33330000
66660000
66660000
66660000
66660000
66660000
66672210
666B9950
666B9950
00111000
00666000
00366000
00366000
00361000
ENDCHAR
STARTCHAR Lcaron
ENCODING 317
SWIDTH 856 0
DWIDTH 10 0
BBX 10 11 0 0
BITMAP
0000000011
4444000397
6666000287
6666000177
6666000172
6666000000
6666000000
6666000000
6667221000
666B998000
666B998000
ENDCHAR
STARTCHAR lcaron
ENCODING 318
SWIDTH 584 0
DWIDTH 7 0
BBX 7 10 0 0
BITMAP
00001110
33336660
66664660
66664660
66664600
66660000
66660000
66672210
666B9950
666B9950
ENDCHAR
STARTCHAR Ldot
ENCODING 319
SWIDTH 604 0
DWIDTH 7 0
BBX 7 10 0 0
BITMAP
44440000
66660000
66660000
66660000
66665620
66666720
66664520
66672210
666B9980
666B9980
ENDCHAR
STARTCHAR ldot
ENCODING 320
SWIDTH 582 0
DWIDTH 7 0
BBX 7 9 0 0
BITMAP
33330000
66660000
66665620
66666720
66664520
66660000
66672210
666B9950
666B9950
ENDCHAR
STARTCHAR Lslash
ENCODING 321
SWIDTH 604 0
DWIDTH 7 0
BBX 8 10 -1 0
BITMAP
04444000
06666000
06666430
06665830
55667630
55666000
58666000
06667221
0666B998
0666B998
ENDCHAR
STARTCHAR lslash
ENCODING 322
SWIDTH 581 0
DWIDTH 7 0
BBX 8 9 -1 0
BITMAP
03333000
06666000
06665640
06665610
64667610
08666000
26667221
0666B995
0666B995
ENDCHAR
STARTCHAR Nacute
ENCODING 323
SWIDTH 877 0
DWIDTH 11 0
BBX 10 14 0 0
BITMAP
0000000120
0000017870
0000487500
0000040000
5555200666
6788700898
6588850898
6678881898
6667887898
6668888698
6666788878
6666178898
6666057888
666600788B
ENDCHAR
STARTCHAR nacute
ENCODING 324
SWIDTH 787 0
DWIDTH 9 0
BBX 9 13 0 0
BITMAP
0000000300
0000057830
0001787200
0000320000
3333101430
6888703970
6688823970
6678873970
6678887970
6667888770
6661788A70
6660688880
66600788B0
ENDCHAR
STARTCHAR Ncommaaccent
ENCODING 325
SWIDTH 877 0
DWIDTH 11 0
BBX 10 15 0 -5
BITMAP
5555200666
6788700898
6588850898
6678881898
6667887898
6668888698
6666788878
6666178898
6666057888
666600788B
0000111000
0000685000
0000385000
0000573000
0000550000
ENDCHAR
STARTCHAR ncommaaccent
ENCODING 326
SWIDTH 787 0
DWIDTH 9 0
BBX 9 14 0 -5
BITMAP
3333101430
6888703970
6688823970
6678873970
6678887970
6667888770
6661788A70
6660688880
66600788B0
0001110000
0005860000
0003760000
0002670000
0002610000
ENDCHAR
STARTCHAR Ncaron
ENCODING 327
SWIDTH 877 0
DWIDTH 11 0
BBX 10 14 0 0
BITMAP
0005766000
0001776000
0000882000
0000000000
5555200666
6788700898
6588850898
6678881898
6667887898
6668888698
6666788878
6666178898
6666057888
666600788B
ENDCHAR
STARTCHAR ncaron
ENCODING 328
SWIDTH 787 0
DWIDTH 9 0
BBX 9 12 0 0
BITMAP
0007675000
0006781000
0002970000
3333101430
6888703970
6688823970
6678873970
6678887970
6667888770
6661788A70
6660688880
66600788B0
ENDCHAR
STARTCHAR Eng
ENCODING 330
SWIDTH 874 0
DWIDTH 11 0
BBX 10 14 0 -4
BITMAP
5555300665
6878700998
6587860998
6677773998
6668786998
6667876998
6666774998
6666076998
6666044998
6666004998
0000016887
0000048787
0000047881
0000036610
ENDCHAR
STARTCHAR eng
ENCODING 331
SWIDTH 691 0
DWIDTH 8 0
BBX 8 13 0 -4
BITMAP
33331233
68887676
66878876
66778976
66787A76
66677776
66617A76
66606776
66600976
00000677
00002876
00003870
00001200
ENDCHAR
STARTCHAR Omacron
ENCODING 332
SWIDTH 933 0
DWIDTH 11 0
BBX 11 12 0 -1
BITMAP
000001000000
002789873000
037889887500
078887888820
577730177770
667600038860
667500028860
677700077770
288876778840
067876787700
005887886000
000046510000
ENDCHAR
STARTCHAR omacron
ENCODING 333
SWIDTH 833 0
DWIDTH 10 0
BBX 10 10 0 -1
BITMAP
0027667200
0487887830
1788988871
6777347776
6685006766
6676007766
5787777883
0778778770
0178778700
0002662000
ENDCHAR
STARTCHAR Obreve
ENCODING 334
SWIDTH 933 0
DWIDTH 11 0
BBX 11 13 0 -1
BITMAP
000175630000
000036500000
002789873000
037889887500
078887888820
577730177770
667600038860
667500028860
677700077770
288876778840
067876787700
005887886000
000046510000
ENDCHAR
STARTCHAR obreve
ENCODING 335
SWIDTH 833 0
DWIDTH 10 0
BBX 10 12 0 -1
BITMAP
0006665000
0001551000
0027667200
0487887830
1788988871
6777347776
6685006766
6676007766
5787777883
0778778770
0178778700
0002662000
ENDCHAR
STARTCHAR Ohungarumlaut
ENCODING 336
SWIDTH 933 0
DWIDTH 11 0
BBX 12 15 0 -1
BITMAP
000001200030
000168814784
003886178720
000411032000
002789873000
037889887500
078887888820
577730177770
667600038860
667500028860
677700077770
288876778840
067876787700
005887886000
000046510000
ENDCHAR
STARTCHAR ohungarumlaut
ENCODING 337
SWIDTH 833 0
DWIDTH 10 0
BBX 11 14 0 -1
BITMAP
000003000210
000478427870
017872587500
003200040000
002766720000
048788783000
178898887100
677734777600
668500676600
667600776600
578777788300
077877877000
017877870000
000266200000
ENDCHAR
STARTCHAR OE
ENCODING 338
SWIDTH 1317 0
DWIDTH 16 0
BBX 16 12 0 -1
BITMAP
0000010000000000
0027898652666662
0378898773877772
1788878873866662
5787201883700000
6676000463877100
6685000273899100
6777000763733000
2788767773722221
0678767883899993
0058878873899993
0000464100000000
ENDCHAR
STARTCHAR oe
ENCODING 339
SWIDTH 1174 0
DWIDTH 14 0
BBX 14 10 0 -1
BITMAP
00276772356664
04875574696664
17672276696664
67773468684442
665500666A8883
66660076696662
57307719672221
077176046A9995
017878846A9995
00026520000000
ENDCHAR
STARTCHAR Racute
ENCODING 340
SWIDTH 843 0
DWIDTH 10 0
BBX 10 14 0 0
BITMAP
0000012000
0001688100
0038861000
0004000000
5666666610
6777777781
6688998776
6668447876
6668667877
6668667874
6669888870
6667499950
6666058770
6666018981
ENDCHAR
STARTCHAR Rcommaaccent
ENCODING 342
SWIDTH 843 0
DWIDTH 10 0
BBX 10 15 0 -5
BITMAP
5666666610
6777777781
6688998776
6668447876
6668667877
6668667874
6669888870
6667499950
6666058770
6666018981
0000110000
0003980000
0001770000
0001770000
0001620000
ENDCHAR
STARTCHAR rcommaaccent
ENCODING 343
SWIDTH 831 0
DWIDTH 10 0
BBX 10 14 0 -5
BITMAP
3666666200
6566667860
6676667874
6669668766
6668777776
6669999882
6669998940
6667189920
6666067770
0001110000
0006760000
0003760000
0003670000
0003610000
ENDCHAR
STARTCHAR Rcaron
ENCODING 344
SWIDTH 843 0
DWIDTH 10 0
BBX 10 14 0 0
BITMAP
0376710000
0077700000
0068400000
0000000000
5666666610
6777777781
6688998776
6668447876
6668667877
6668667874
6669888870
6667499950
6666058770
6666018981
ENDCHAR
STARTCHAR rcaron
ENCODING 345
SWIDTH 831 0
DWIDTH 10 0
BBX 10 12 0 0
BITMAP
0006666000
0003685000
0000A70000
3666666200
6566667860
6676667874
6669668766
6668777776
6669999882
6669998940
6667189920
6666067770
ENDCHAR
STARTCHAR Sacute
ENCODING 346
SWIDTH 682 0
DWIDTH 8 0
BBX 8 15 0 -1
BITMAP
00000021
00002787
00058750
00016000
04799873
28899984
77777730
66785300
57778870
08766775
00667876
01467877
07766776
47877870
00465200
ENDCHAR
STARTCHAR sacute
ENCODING 347
SWIDTH 683 0
DWIDTH 8 0
BBX 8 14 0 -1
BITMAP
00000021
00002787
00058750
00004000
00566630
18767786
67766661
67844200
37789871
03766877
02200677
27988876
27889870
00122000
ENDCHAR
STARTCHAR Scircumflex
ENCODING 348
SWIDTH 682 0
DWIDTH 8 0
BBX 8 15 0 -1
BITMAP
000A7000
00268500
00667600
00011000
04799873
28899984
77777730
66785300
57778870
08766775
00667876
01467877
07766776
47877870
00465200
ENDCHAR
STARTCHAR scircumflex
ENCODING 349
SWIDTH 683 0
DWIDTH 8 0
BBX 8 13 0 -1
BITMAP
000A7000
00268500
00677600
00566630
18767786
67766661
67844200
37789871
03766877
02200677
27988876
27889870
00122000
ENDCHAR
STARTCHAR Scedilla
ENCODING 350
SWIDTH 682 0
DWIDTH 8 0
BBX 8 16 0 -5
BITMAP
00011000
04799873
28899984
77777730
66785300
57778870
08766775
00667876
01467877
07766776
47877870
00488200
00677000
00873000
00874000
00364000
ENDCHAR
STARTCHAR scedilla
ENCODING 351
SWIDTH 683 0
DWIDTH 8 0
BBX 8 13 0 -4
BITMAP
00566630
18767786
67766661
67844200
37789871
03766877
02200677
27988876
278AB870
00799000
00873000
00875000
00265000
ENDCHAR
STARTCHAR Scaron
ENCODING 352
SWIDTH 682 0
DWIDTH 8 0
BBX 8 15 0 -1
BITMAP
00666600
00267600
00098100
00011000
04799873
28899984
77777730
66785300
57778870
08766775
00667876
01467877
07766776
47877870
00465200
ENDCHAR
STARTCHAR scaron
ENCODING 353
SWIDTH 683 0
DWIDTH 8 0
BBX 8 13 0 -1
BITMAP
00666600
00267600
00098100
00566630
18767786
67766661
67844200
37789871
03766877
02200677
27988876
27889870
00122000
ENDCHAR
STARTCHAR Tcommaaccent
ENCODING 354
SWIDTH 591 0
DWIDTH 7 0
BBX 7 14 0 -4
BITMAP
46666640
47777750
46BBB640
00899000
00899000
00899000
00899000
00899000
00899000
009CA000
03782000
06741000
06661000
00661000
ENDCHAR
STARTCHAR tcommaaccent
ENCODING 355
SWIDTH 588 0
DWIDTH 7 0
BBX 7 13 0 -4
BITMAP
46666640
46666640
46777640
00899000
00899000
00899000
00899000
00899000
009CA000
03782000
06741000
06661000
00661000
ENDCHAR
STARTCHAR Tcaron
ENCODING 356
SWIDTH 591 0
DWIDTH 7 0
BBX 7 14 0 0
BITMAP
02767200
00787000
00575000
00000000
46666640
47777750
46BBB640
00899000
00899000
00899000
00899000
00899000
00899000
00899000
ENDCHAR
STARTCHAR tcaron
ENCODING 357
SWIDTH 842 0
DWIDTH 10 0
BBX 10 10 0 0
BITMAP
0000000111
4666664676
4666664466
4677764367
0089900371
0089900000
0089900000
0089900000
0089900000
0089900000
ENDCHAR
STARTCHAR Tbar
ENCODING 358
SWIDTH 591 0
DWIDTH 7 0
BBX 7 10 0 0
BITMAP
46666640
47777750
46BBB640
00899000
56899650
11899110
22899220
00899000
00899000
00899000
ENDCHAR
STARTCHAR tbar
ENCODING 359
SWIDTH 588 0
DWIDTH 7 0
BBX 7 9 0 0
BITMAP
46666640
46666640
46777640
00899000
34899430
56899650
45899540
00899000
00899000
ENDCHAR
STARTCHAR Utilde
ENCODING 360
SWIDTH 905 0
DWIDTH 11 0
BBX 11 14 0 -1
BITMAP
006677656000
018899977000
012144430000
444400044530
666600066850
666600066850
666600066850
666600066850
666600066850
676700077930
287876787800
077776778500
006887885000
000156400000
ENDCHAR
STARTCHAR utilde
ENCODING 361
SWIDTH 795 0
DWIDTH 10 0
BBX 9 13 0 -1
BITMAP
0377772740
0788998810
0223444100
3333003440
6666008990
6666008990
6666008990
6666008990
6667008890
5877678770
0787677740
0178787500
0003651000
ENDCHAR
STARTCHAR Umacron
ENCODING 362
SWIDTH 905 0
DWIDTH 11 0
BBX 11 11 0 -1
BITMAP
444400044530
666600066850
666600066850
666600066850
666600066850
666600066850
676700077930
287876787800
077776778500
006887885000
000156400000
ENDCHAR
STARTCHAR umacron
ENCODING 363
SWIDTH 795 0
DWIDTH 10 0
BBX 9 10 0 -1
BITMAP
3333003440
6666008990
6666008990
6666008990
6666008990
6667008890
5877678770
0787677740
0178787500
0003651000
ENDCHAR
STARTCHAR Ubreve
ENCODING 364
SWIDTH 905 0
DWIDTH 11 0
BBX 11 13 0 -1
BITMAP
000365710000
000045300000
444400044530
666600066850
666600066850
666600066850
666600066850
666600066850
676700077930
287876787800
077776778500
006887885000
000156400000
ENDCHAR
STARTCHAR ubreve
ENCODING 365
SWIDTH 795 0
DWIDTH 10 0
BBX 9 12 0 -1
BITMAP
0007564000
0002550000
3333003440
6666008990
6666008990
6666008990
6666008990
6667008890
5877678770
0787677740
0178787500
0003651000
ENDCHAR
STARTCHAR Uring
ENCODING 366
SWIDTH 905 0
DWIDTH 11 0
BBX 11 15 0 -1
BITMAP
000025100000
000186800000
000296900000
000045300000
444400044530
666600066850
666600066850
666600066850
666600066850
666600066850
676700077930
287876787800
077776778500
006887885000
000156400000
ENDCHAR
STARTCHAR uring
ENCODING 367
SWIDTH 795 0
DWIDTH 10 0
BBX 9 14 0 -1
BITMAP
0001530000
0006682000
0007774000
0002650000
3333003440
6666008990
6666008990
6666008990
6666008990
6667008890
5877678770
0787677740
0178787500
0003651000
ENDCHAR
STARTCHAR Uhungarumlaut
ENCODING 368
SWIDTH 905 0
DWIDTH 11 0
BBX 12 15 0 -1
BITMAP
000001200030
000278705782
004875278710
000400031000
444400044530
666600066850
666600066850
666600066850
666600066850
666600066850
676700077930
287876787800
077776778500
006887885000
000156400000
ENDCHAR
STARTCHAR uhungarumlaut
ENCODING 369
SWIDTH 795 0
DWIDTH 10 0
BBX 11 14 0 -1
BITMAP
000003000300
000678237850
028871687300
004100230000
333300344000
666600899000
666600899000
666600899000
666600899000
666700889000
587767877000
078767774000
017878750000
000365100000
ENDCHAR
STARTCHAR Uogonek
ENCODING 370
SWIDTH 905 0
DWIDTH 11 0
BBX 11 14 0 -4
BITMAP
444400044530
666600066850
666600066850
666600066850
666600066850
666600066850
676700077930
287876787800
077776778500
0068AB885000
0003CB400000
000572000000
000576000000
000232000000
ENDCHAR
STARTCHAR uogonek
ENCODING 371
SWIDTH 794 0
DWIDTH 10 0
BBX 9 13 0 -4
BITMAP
3333003440
6666008990
6666008990
6666008990
6666008990
6667008890
5877678770
0787677740
017AD87500
000BD51000
0029500000
0029900000
0013300000
ENDCHAR
STARTCHAR Ycircumflex
ENCODING 374
SWIDTH 789 0
DWIDTH 9 0
BBX 10 14 0 0
BITMAP
0002960000
0006780000
0007675000
0000000000
4553005661
3877048760
0778477830
0487787700
0078878400
0057887000
0009785000
0006793000
0006793000
0006793000
ENDCHAR
STARTCHAR ycircumflex
ENCODING 375
SWIDTH 733 0
DWIDTH 9 0
BBX 9 12 0 0
BITMAP
0006730000
0007770000
0038671000
3342033330
5777078830
0788787600
0577778300
0078877000
0048784000
0008980000
0008980000
0008980000
ENDCHAR
STARTCHAR Ydieresis
ENCODING 376
SWIDTH 789 0
DWIDTH 9 0
BBX 10 13 0 0
BITMAP
0011011100
0298066600
0011011100
4553005661
3877048760
0778477830
0487787700
0078878400
0057887000
0009785000
0006793000
0006793000
0006793000
ENDCHAR
STARTCHAR Zacute
ENCODING 377
SWIDTH 854 0
DWIDTH 10 0
BBX 10 14 0 0
BITMAP
0000000210
0000027860
0000587500
0000040000
3666666677
3777776686
5999967886
2444578886
0006888871
0378888400
4788871000
4888558886
4885899997
5B89999997
ENDCHAR
STARTCHAR zacute
ENCODING 378
SWIDTH 714 0
DWIDTH 9 0
BBX 9 13 0 0
BITMAP
0000001200
0000168710
0004876000
0000400000
3666433310
3666877710
3667777600
0008887000
0067773000
0187870000
0887732200
4777799910
5888899910
ENDCHAR
STARTCHAR Zdotaccent
ENCODING 379
SWIDTH 854 0
DWIDTH 10 0
BBX 10 13 0 0
BITMAP
0000661000
0000671000
0000661000
3666666677
3777776686
5999967886
2444578886
0006888871
0378888400
4788871000
4888558886
4885899997
5B89999997
ENDCHAR
STARTCHAR zdotaccent
ENCODING 380
SWIDTH 714 0
DWIDTH 9 0
BBX 9 12 0 0
BITMAP
0005620000
0005730000
0004620000
3666433310
3666877710
3667777600
0008887000
0067773000
0187870000
0887732200
4777799910
5888899910
ENDCHAR
STARTCHAR Zcaron
ENCODING 381
SWIDTH 854 0
DWIDTH 10 0
BBX 10 14 0 0
BITMAP
0006666000
0002685000
0000A71000
0000000000
3666666677
3777776686
5999967886
2444578886
0006888871
0378888400
4788871000
4888558886
4885899997
5B89999997
ENDCHAR
STARTCHAR zcaron
ENCODING 382
SWIDTH 714 0
DWIDTH 9 0
BBX 9 12 0 0
BITMAP
0047670000
0007770000
0007830000
3666433310
3666877710
3667777600
0008887000
0067773000
0187870000
0887732200
4777799910
5888899910
ENDCHAR
STARTCHAR florin
ENCODING 402
SWIDTH 388 0
DWIDTH 5 0
BBX 5 12 0 -1
BITMAP
000100
018920
077820
067600
477810
477920
377810
067600
067600
278500
578200
474000
ENDCHAR
STARTCHAR uni01C4
ENCODING 452
SWIDTH 1740 0
DWIDTH 21 0
BBX 21 14 0 0
BITMAP
0000000000000066750000
0000000000000066810000
000000000000002A700000
0000000000000000000000
5666666500066666666840
6777776880067777767830
6688997777089998678830
6668447888034446888830
6666000788300278888500
6666000788305788872000
6666004888168888500000
6678888887078873788830
6789998881078769999940
78999987100A8899999940
ENDCHAR
STARTCHAR uni01C5
ENCODING 453
SWIDTH 1601 0
DWIDTH 19 0
BBX 19 12 0 0
BITMAP
00000000000006666000
00000000000004584000
56666665000000B70000
67777768800566643320
66889977770566588860
66684478880566877720
66660007883002777600
66660007883008887000
66660048881057774000
66788888870187882210
67899988810777779970
78999987100777899970
ENDCHAR
STARTCHAR Scommaaccent
ENCODING 536
SWIDTH 682 0
DWIDTH 8 0
BBX 8 16 0 -5
BITMAP
00011000
04799873
28899984
77777730
66785300
57778870
08766775
00667876
01467877
07766776
47877870
00477200
00199100
00069100
00078000
00063000
ENDCHAR
STARTCHAR scommaaccent
ENCODING 537
SWIDTH 683 0
DWIDTH 8 0
BBX 8 14 0 -5
BITMAP
00566630
18767786
67766661
67844200
37789871
03766877
02200677
27988876
27889870
00143000
00099100
00069100
00078000
00063000
ENDCHAR
STARTCHAR uni021A
ENCODING 538
SWIDTH 591 0
DWIDTH 7 0
BBX 7 15 0 -5
BITMAP
46666640
47777750
46BBB640
00899000
00899000
00899000
00899000
00899000
00899000
00899000
00111000
00666000
00366000
00366000
00360000
ENDCHAR
STARTCHAR uni021B
ENCODING 539
SWIDTH 588 0
DWIDTH 7 0
BBX 7 14 0 -5
BITMAP
46666640
46666640
46777640
00899000
00899000
00899000
00899000
00899000
00899000
00111000
00666000
00366000
00366000
00360000
ENDCHAR
STARTCHAR uni0237
ENCODING 567
SWIDTH 393 0
DWIDTH 5 0
BBX 5 11 0 -2
BITMAP
033410
067930
067930
067930
067930
067930
068930
588810
587600
686000
210000
ENDCHAR
STARTCHAR circumflex
ENCODING 710
SWIDTH 376 0
DWIDTH 5 0
BBX 4 3 0 9
BITMAP
0782
1776
5767
ENDCHAR
STARTCHAR caron
ENCODING 711
SWIDTH 362 0
DWIDTH 4 0
BBX 4 3 0 9
BITMAP
6666
2676
0981
ENDCHAR
STARTCHAR breve
ENCODING 728
SWIDTH 360 0
DWIDTH 4 0
BBX 4 2 0 9
BITMAP
5656
0552
ENDCHAR
STARTCHAR dotaccent
ENCODING 729
SWIDTH 255 0
DWIDTH 3 0
BBX 3 3 0 7
BITMAP
3640
3740
3640
ENDCHAR
STARTCHAR ring
ENCODING 730
SWIDTH 330 0
DWIDTH 4 0
BBX 4 4 0 9
BITMAP
0440
5775
5775
1661
ENDCHAR
STARTCHAR ogonek
ENCODING 731
SWIDTH 250 0
DWIDTH 3 0
BBX 3 5 0 -4
BITMAP
0430
5640
6720
6660
2220
ENDCHAR
STARTCHAR tilde
ENCODING 732
SWIDTH 665 0
DWIDTH 8 0
BBX 8 3 0 6
BITMAP
17677365
66799974
22244420
ENDCHAR
STARTCHAR hungarumlaut
ENCODING 733
SWIDTH 837 0
DWIDTH 10 0
BBX 10 4 0 8
BITMAP
0001200030
0168814784
3886178720
0400032000
ENDCHAR
STARTCHAR uni0307
ENCODING 775
SWIDTH 260 0
DWIDTH 3 0
BBX 3 3 0 4
BITMAP
3640
4740
3530
ENDCHAR
STARTCHAR uni030F
ENCODING 783
SWIDTH 554 0
DWIDTH 7 0
BBX 6 5 0 8
BITMAP
670660
284383
077077
058168
001101
ENDCHAR
STARTCHAR uni0311
ENCODING 785
SWIDTH 375 0
DWIDTH 5 0
BBX 4 2 0 9
BITMAP
1674
3435
ENDCHAR
STARTCHAR uni0326
ENCODING 806
SWIDTH 274 0
DWIDTH 3 0
BBX 3 5 0 -5
BITMAP
1110
6660
3660
3670
3610
ENDCHAR
STARTCHAR Omega
ENCODING 937
SWIDTH 92 0
DWIDTH 1 0
BBX 1 1 0 0
BITMAP
00
ENDCHAR
STARTCHAR uni00B5.dup2
ENCODING 956
SWIDTH 802 0
DWIDTH 10 0
BBX 10 11 0 -2
BITMAP
3333003441
6666006892
6666006892
6666006892
6666006892
6666007892
6668678880
6668678750
6668788600
6668651000
2222000000
ENDCHAR
STARTCHAR pi
ENCODING 960
SWIDTH 92 0
DWIDTH 1 0
BBX 1 1 0 0
BITMAP
00
ENDCHAR
STARTCHAR endash
ENCODING 8211
SWIDTH 473 0
DWIDTH 6 0
BBX 6 3 0 3
BITMAP
377771
499991
133330
ENDCHAR
STARTCHAR emdash
ENCODING 8212
SWIDTH 615 0
DWIDTH 7 0
BBX 7 3 0 3
BITMAP
37777760
49999980
13333330
ENDCHAR
STARTCHAR quoteleft
ENCODING 8216
SWIDTH 254 0
DWIDTH 3 0
BBX 3 5 0 5
BITMAP
1640
6640
6640
6660
1110
ENDCHAR
STARTCHAR quoteright
ENCODING 8217
SWIDTH 251 0
DWIDTH 3 0
BBX 3 5 0 5
BITMAP
4440
6660
2760
4830
1000
ENDCHAR
STARTCHAR quotesinglbase
ENCODING 8218
SWIDTH 252 0
DWIDTH 3 0
BBX 3 5 0 -2
BITMAP
1110
6660
4660
3660
3610
ENDCHAR
STARTCHAR quotedblleft
ENCODING 8220
SWIDTH 535 0
DWIDTH 6 0
BBX 6 5 0 5
BITMAP
164046
664177
664395
666398
111011
ENDCHAR
STARTCHAR quotedblright
ENCODING 8221
SWIDTH 532 0
DWIDTH 6 0
BBX 6 5 0 5
BITMAP
444166
666298
276077
483186
100010
ENDCHAR
STARTCHAR quotedblbase
ENCODING 8222
SWIDTH 533 0
DWIDTH 6 0
BBX 6 5 0 -2
BITMAP
111011
666398
466178
366177
361163
ENDCHAR
STARTCHAR dagger
ENCODING 8224
SWIDTH 636 0
DWIDTH 8 0
BBX 8 10 0 0
BITMAP
00555400
00667500
46967962
47967A72
46967962
00667500
00667500
00667500
00667500
00667500
ENDCHAR
STARTCHAR daggerdbl
ENCODING 8225
SWIDTH 648 0
DWIDTH 8 0
BBX 8 10 0 0
BITMAP
00555500
00666600
47A66A72
59B66B93
24866841
00666600
48A66B83
59B66B93
23866831
00666600
ENDCHAR
STARTCHAR bullet
ENCODING 8226
SWIDTH 501 0
DWIDTH 6 0
BBX 6 6 0 1
BITMAP
046650
377774
660066
671176
188881
004410
ENDCHAR
STARTCHAR ellipsis
ENCODING 8230
SWIDTH 676 0
DWIDTH 8 0
BBX 8 3 0 0
BITMAP
12122121
59599596
59599596
ENDCHAR
STARTCHAR perthousand
ENCODING 8240
SWIDTH 447 0
DWIDTH 5 0
BBX 5 12 0 -2
BITMAP
002660
005870
007770
007850
028810
057700
076700
078500
288100
577000
767000
111000
ENDCHAR
STARTCHAR guilsinglleft
ENCODING 8249
SWIDTH 465 0
DWIDTH 6 0
BBX 6 7 0 1
BITMAP
000020
005781
478781
487820
595871
027781
000051
ENDCHAR
STARTCHAR guilsinglright
ENCODING 8250
SWIDTH 465 0
DWIDTH 6 0
BBX 6 7 0 1
BITMAP
200000
477300
487871
067871
3875B1
387510
330000
ENDCHAR
STARTCHAR fraction
ENCODING 8260
SWIDTH 447 0
DWIDTH 5 0
BBX 5 12 0 -2
BITMAP
002660
005870
007770
007850
028810
057700
076700
078500
288100
577000
767000
111000
ENDCHAR
STARTCHAR uni2074
ENCODING 8308
SWIDTH 528 0
DWIDTH 6 0
BBX 6 9 0 1
BITMAP
005550
038830
077700
288464
688487
588888
466666
000075
000010
ENDCHAR
STARTCHAR Euro
ENCODING 8364
SWIDTH 781 0
DWIDTH 9 0
BBX 9 12 0 -1
BITMAP
0000001000
0003789970
0057799960
0278787830
0677810000
4688766000
4689666000
0677700000
0477776620
0077776650
0007887880
0000156520
ENDCHAR
STARTCHAR trademark
ENCODING 8482
SWIDTH 1503 0
DWIDTH 18 0
BBX 18 8 0 2
BITMAP
466666446510001555
477777567770006777
46AAA6465882017866
006660066777077766
006660066688478866
006660066677877666
006660066638873666
003330033303350333
ENDCHAR
STARTCHAR partialdiff
ENCODING 8706
SWIDTH 108 0
DWIDTH 1 0
BBX 1 1 0 0
BITMAP
00
ENDCHAR
STARTCHAR uni2206
ENCODING 8710
SWIDTH 108 0
DWIDTH 1 0
BBX 1 1 0 0
BITMAP
00
ENDCHAR
STARTCHAR product
ENCODING 8719
SWIDTH 521 0
DWIDTH 6 0
BBX 6 9 0 0
BITMAP
014320
058770
077881
286786
777687
587677
188684
077870
038860
ENDCHAR
STARTCHAR summation
ENCODING 8721
SWIDTH 108 0
DWIDTH 1 0
BBX 1 1 0 0
BITMAP
00
ENDCHAR
STARTCHAR minus
ENCODING 8722
SWIDTH 555 0
DWIDTH 7 0
BBX 7 3 0 4
BITMAP
25555510
48888810
36666610
ENDCHAR
STARTCHAR radical
ENCODING 8730
SWIDTH 108 0
DWIDTH 1 0
BBX 1 1 0 0
BITMAP
00
ENDCHAR
STARTCHAR infinity
ENCODING 8734
SWIDTH 108 0
DWIDTH 1 0
BBX 1 1 0 0
BITMAP
00
ENDCHAR
STARTCHAR integral
ENCODING 8747
SWIDTH 362 0
DWIDTH 4 0
BBX 5 12 0 -1
BITMAP
000200
038910
078810
079400
079300
079300
079300
079300
079300
379300
678000
573000
ENDCHAR
STARTCHAR approxequal
ENCODING 8776
SWIDTH 665 0
DWIDTH 8 0
BBX 8 6 0 3
BITMAP
17677365
66799974
22244420
17677365
66799974
22244420
ENDCHAR
STARTCHAR notequal
ENCODING 8800
SWIDTH 473 0
DWIDTH 6 0
BBX 6 12 0 -2
BITMAP
002660
005870
139990
49FFD1
4AFF91
057700
3DDD61
4FFD81
4DD651
577000
767000
111000
ENDCHAR
STARTCHAR lessequal
ENCODING 8804
SWIDTH 108 0
DWIDTH 1 0
BBX 1 1 0 0
BITMAP
00
ENDCHAR
STARTCHAR greaterequal
ENCODING 8805
SWIDTH 108 0
DWIDTH 1 0
BBX 1 1 0 0
BITMAP
00
ENDCHAR
STARTCHAR lozenge
ENCODING 9674
SWIDTH 521 0
DWIDTH 6 0
BBX 6 9 0 0
BITMAP
014320
058770
077881
286786
777687
587677
188684
077870
038860
ENDCHAR
STARTCHAR uniF8FF
ENCODING 63743
SWIDTH 108 0
DWIDTH 1 0
BBX 1 1 0 0
BITMAP
00
ENDCHAR
STARTCHAR uniFB01
ENCODING 64257
SWIDTH 962 0
DWIDTH 12 0
BBX 11 9 0 0
BITMAP
333666613440
666A66618990
666A66618990
666711108990
666B99708990
666B99708990
666711108990
666600008990
666600008990
ENDCHAR
STARTCHAR uniFB02
ENCODING 64258
SWIDTH 1208 0
DWIDTH 15 0
BBX 15 9 0 0
BITMAP
3336666134400000
666A666189900000
666A666189900000
6667111089900000
666B997089900000
666B997089900000
6667111089922200
6666000089999910
6666000089999910
ENDCHAR
STARTCHAR .notdef
ENCODING -1
SWIDTH 108 0
DWIDTH 1 0
BBX 1 1 0 0
BITMAP
00
ENDCHAR
ENDFONT
